<?xml version="1.0" encoding="UTF-8"?>
<svg width="309px" height="216px" viewBox="0 0 309 216" version="1.1" xmlns="http://www.w3.org/2000/svg" xmlns:xlink="http://www.w3.org/1999/xlink">
    <title>Group 265</title>
    <defs>
        <polygon id="path-1" points="0.122879763 0.127841876 301.154755 0.127841876 301.154755 215.23528 0.122879763 215.23528"></polygon>
        <polygon id="path-3" points="0 216 309 216 309 0 0 0"></polygon>
    </defs>
    <g id="Page-1" stroke="none" stroke-width="1" fill="none" fill-rule="evenodd">
        <g id="login" transform="translate(-51.000000, -192.000000)">
            <g id="Group-265" transform="translate(51.000000, 192.000000)">
                <g id="Group-3" transform="translate(4.000000, 0.000000)">
                    <mask id="mask-2" fill="white">
                        <use xlink:href="#path-1"></use>
                    </mask>
                    <g id="Clip-2"></g>
                    <path d="M18.5835303,216.911731 C18.5835303,216.911731 -18.4018572,165.262162 12.3285908,109.344089 C39.5948017,59.7297257 71.3843949,63.1213585 94.7078845,83.2551285 C104.641681,91.8302671 133.28191,84.3119943 157.658128,33.8275464 C190.901139,-35.0194802 306.132539,6.73649395 285.12223,112.659297 C274.954725,163.918338 316.066015,165.781627 295.118103,217.02031 L18.5835303,216.911731 Z" id="Fill-1" fill="#D3EAFF" mask="url(#mask-2)"></path>
                </g>
                <path d="M170.174302,188.674435 C170.174302,188.674435 161.164213,178.221233 169.618774,171.581671 C169.618774,171.581671 175.794256,167.863931 180.829957,168.16583 C180.829957,168.16583 173.694576,180.063588 176.00302,181.247252 C178.311465,182.430597 182.992539,167.419538 182.992539,167.419538 C182.992539,167.419538 197.046193,166.06418 201.567285,168.225668 C201.567285,168.225668 189.553136,178.002148 192.083343,178.584247 C194.61371,179.166186 207.590646,169.570175 207.590646,169.570175 C207.590646,169.570175 220.6706,171.783682 219.973061,179.718445 C219.275681,187.65289 214.768871,190.102874 212.787935,189.892087 C210.806999,189.68098 199.219526,185.28237 198.967115,186.896385 C198.714544,188.5104 205.689782,193.785031 210.574165,194.03188 C210.574165,194.03188 201.352262,204.144886 195.223475,201.226095 C189.094689,198.307464 188.571574,193.680993 184.751232,191.945867 C180.930889,190.210581 177.669446,190.21473 179.246813,191.984642 C180.82418,193.754394 187.738441,195.474202 189.923168,199.317201 C192.108054,203.160361 194.06829,205.752199 187.727369,204.803417 C181.386288,203.854634 171.079323,199.240928 170.626652,193.957522 L170.174302,188.674435 Z" id="Fill-4" fill="#5F8AD4"></path>
                <path d="M214,179.061554 C214,179.061554 178.666761,177.695679 170.863623,187.832159 C170.863623,187.832159 169.137785,193.016462 163.827809,197.73731 L163,200 C163,200 169.122783,193.524423 171.313516,193.132687 C171.313516,193.132687 167.887374,180.57471 214,179.061554" id="Fill-6" fill="#5F8AD4"></path>
                <path d="M163.02611,197.908348 C163.02611,197.908348 155.521313,203.637667 155,213.874149 L156.361953,214 C156.361953,214 158.758794,203.415146 163.091333,199.276082 C167.423556,195.136854 163.02611,197.908348 163.02611,197.908348" id="Fill-8" fill="#5F8AD4"></path>
                <path d="M78.8806241,103.087921 C78.8806241,103.087921 92.7521557,95.499944 86.2788389,85.2024376 C86.2788389,85.2024376 81.1000886,78.87915 75.5515082,77.2532113 C75.5515082,77.2532113 78.5107941,92.609474 75.5515082,92.9707236 C72.5922223,93.332131 73.5171203,75.6272727 73.5171203,75.6272727 C73.5171203,75.6272727 58.9057672,68.7622684 53.1722719,69.3041428 C53.1722719,69.3041428 62.2350446,84.2991559 59.2755972,83.9377486 C56.3163113,83.5763412 46.1440486,68.4008611 46.1440486,68.4008611 C46.1440486,68.4008611 31.1628655,65.6910159 28.7586476,74.3625836 C26.3541067,83.0344668 30.2382906,87.3702507 32.4575935,87.9122828 C34.6770579,88.4541572 48.9184195,88.2736902 48.548428,90.0802536 C48.178598,91.8868171 38.5610803,94.7774448 33.197415,93.1515062 C33.197415,93.1515062 39.1158253,107.423705 46.8838701,106.701048 C54.6519148,105.978391 57.0562943,101.281199 61.8650531,100.91995 C66.673812,100.5587 70.1880044,101.823232 67.7834635,103.087921 C65.379084,104.35261 57.2412093,103.502332 53.3571869,106.727708 C49.4731645,109.953083 46.3289636,111.940271 53.5422634,113.385585 C60.7554017,114.830741 73.7020353,113.927617 76.2913297,108.507611 L78.8806241,103.087921 Z" id="Fill-10" fill="#2E48D3"></path>
                <path d="M35,76 C35,76 73.8583033,88.6033143 78.2991553,102.689733 C78.2991553,102.689733 78.1143151,108.99131 82,116.219745 L82,119 C82,119 77.9291517,109.547393 75.7086449,108.249919 C75.7086449,108.249919 84.4055086,96.0172191 35,76" id="Fill-12" fill="#5F8AD4"></path>
                <path d="M82.0306125,115.734935 C82.0306125,115.734935 88.5854732,124.874499 84.8485487,136 L83.1622052,135.584086 C83.1622052,135.584086 84.7992415,123.330115 81.3698246,117.166861 C77.9405845,111.003932 82.0306125,115.734935 82.0306125,115.734935" id="Fill-14" fill="#5F8AD4"></path>
                <path d="M161.462939,163.818033 C161.462939,163.818033 142.505389,153.26089 151.352289,138.933704 C151.352289,138.933704 158.42955,130.136298 166.01286,127.874145 C166.01286,127.874145 161.968664,149.239319 166.01286,149.742056 C170.057056,150.244792 168.793305,125.611991 168.793305,125.611991 C168.793305,125.611991 188.761983,116.060641 196.597914,116.814585 C196.597914,116.814585 184.212223,137.677183 188.256419,137.174287 C192.300775,136.671551 206.203,115.557744 206.203,115.557744 C206.203,115.557744 226.677404,111.787382 229.963253,123.852574 C233.249262,135.917446 227.941155,141.950122 224.907928,142.704067 C221.8747,143.458171 202.411425,143.206803 202.917151,145.720485 C203.422555,148.234007 216.566432,152.255577 223.896637,149.993424 C223.896637,149.993424 215.808246,169.85055 205.192031,168.844917 C194.575656,167.839604 191.289646,161.304352 184.717627,160.801615 C178.145608,160.299039 173.342904,162.058456 176.629075,163.818033 C179.914923,165.577451 191.036864,164.394579 196.344971,168.881901 C201.653078,173.369384 205.950217,176.134274 196.092189,178.145059 C186.234321,180.156005 168.540522,178.899004 165.00157,171.358599 L161.462939,163.818033 Z" id="Fill-16" fill="#2E48D3"></path>
                <path d="M221,128 C221,128 168.086556,145.000091 162.039475,164.000126 C162.039475,164.000126 162.291457,172.499933 157,182.249964 L157,186 C157,186 162.543439,173.249972 165.566899,171.50004 C165.566899,171.50004 153.724558,155.000135 221,128" id="Fill-18" fill="#5F8AD4"></path>
                <path d="M157.292314,182.286895 C157.292314,182.286895 148.552778,194.334624 153.535258,209 L155.783613,208.451816 C155.783613,208.451816 153.601092,192.298711 158.173608,184.174721 C162.745952,176.050575 157.292314,182.286895 157.292314,182.286895" id="Fill-20" fill="#5F8AD4"></path>
                <path d="M174.086198,165 L155.913802,165 C155.411284,165 155,164.54992 155,163.999821 C155,163.449723 155.411284,163 155.913802,163 L174.086198,163 C174.588716,163 175,163.449723 175,163.999821 C175,164.54992 174.588716,165 174.086198,165" id="Fill-22" fill="#D3EAFF"></path>
                <path d="M174.086198,168 L155.913802,168 C155.411284,168 155,167.54992 155,166.999821 C155,166.449902 155.411284,166 155.913802,166 L174.086198,166 C174.588716,166 175,166.449902 175,166.999821 C175,167.54992 174.588716,168 174.086198,168" id="Fill-24" fill="#D3EAFF"></path>
                <path d="M178,16.5022424 L178,209.497597 C178,212.476525 175.612195,214.922197 172.66516,215 C172.617522,215 172.571477,215 172.523838,215 L76.4760022,215 C73.4652366,215 71,212.524391 71,209.497597 L71,16.5022424 C71,13.4754488 73.4652366,11 76.4760022,11 L172.523838,11 C175.536197,11 178,13.4754488 178,16.5022424" id="Fill-26" fill="#59AEED"></path>
                <path d="M183,16.5022856 L183,209.500596 C183,212.524372 180.534767,215 177.522253,215 L81.4745601,215 C78.4622058,215 76,212.524372 76,209.500596 L76,16.5022856 C76,13.4754682 78.4622058,11 81.4745601,11 L177.522253,11 C180.534767,11 183,13.4754682 183,16.5022856" id="Fill-28" fill="#A2CEFD"></path>
                <path d="M145.91695,19 L118.08305,19 C117.487556,19 117,18.5500589 117,18 C117,17.4499411 117.487556,17 118.08305,17 L145.91695,17 C146.512603,17 147,17.4499411 147,18 C147,18.5500589 146.512603,19 145.91695,19" id="Fill-30" fill="#3893E0"></path>
                <path d="M113.000074,19 L113.000074,19 C112.450055,19 112,18.5500589 112,18 C112,17.4499411 112.450055,17 113.000074,17 C113.549945,17 114,17.4499411 114,18 C114,18.5500589 113.549945,19 113.000074,19" id="Fill-32" fill="#3893E0"></path>
                <path d="M139,202.999041 C139,204.920538 138.224468,206.662428 136.97026,207.92734 C135.701832,209.208232 133.942585,210 131.99992,210 C128.134402,210 125,206.865204 125,202.999041 C125,200.513639 126.29479,198.332481 128.24816,197.090579 C129.331412,196.400278 130.619492,196 131.99992,196 C135.865598,196 139,199.133198 139,202.999041" id="Fill-34" fill="#80C1F6"></path>
                <mask id="mask-4" fill="white">
                    <use xlink:href="#path-3"></use>
                </mask>
                <g id="Clip-37"></g>
                <polygon id="Fill-36" fill="#CCE4FD" mask="url(#mask-4)" points="83 194 178 194 178 24 83 24"></polygon>
                <path d="M137,207.912637 C135.728581,209.202676 133.964803,210 132.017472,210 C128.14219,210 125,206.843209 125,202.949758 C125,200.446917 126.298167,198.250455 128.25623,197 C128.944635,200.000866 130.983102,205.02103 137,207.912637" id="Fill-38" fill="#74BBF3" mask="url(#mask-4)"></path>
                <path d="M178,38 L178,104 L87.8365824,104 C86.8275271,104 86,103.125719 86,102.057716 L86,39.9452915 C86,38.8744395 86.8275271,38 87.8365824,38 L178,38 Z" id="Fill-39" fill="#B7D9FC" mask="url(#mask-4)"></path>
                <path d="M152,117.945133 L152,180.057557 C152,181.125402 151.252296,182 150.340396,182 L83,182 L83,116 L150.340396,116 C151.252296,116 152,116.874281 152,117.945133" id="Fill-40" fill="#B7D9FC" mask="url(#mask-4)"></path>
                <path d="M220,33.9457523 L220,96.0582044 C220,97.1255668 219.116928,98 218.034154,98 L90.9616887,98 C89.8832316,98 89,97.1255668 89,96.0582044 L89,33.9457523 C89,32.8742749 89.8832316,32 90.9616887,32 L218.034154,32 C219.116928,32 220,32.8742749 220,33.9457523" id="Fill-41" fill="#FFFBF8" mask="url(#mask-4)"></path>
                <path d="M220,33.9451192 L220,96.0570965 C220,97.1254086 218.965027,98 217.698699,98 L154,98 L154,32 L217.698699,32 C218.965027,32 220,32.8745914 220,33.9451192" id="Fill-42" fill="#469FF1" mask="url(#mask-4)"></path>
                <path d="M192.265622,41 L167.734378,41 C167.33042,41 167,40.5500674 167,40 C167,39.4499326 167.33042,39 167.734378,39 L192.265622,39 C192.669415,39 193,39.4499326 193,40 C193,40.5500674 192.669415,41 192.265622,41" id="Fill-43" fill="#D3EAFF" mask="url(#mask-4)"></path>
                <path d="M192.265622,44 L167.734378,44 C167.33042,44 167,43.5500168 167,42.9998877 C167,42.4499832 167.33042,42 167.734378,42 L192.265622,42 C192.669415,42 193,42.4499832 193,42.9998877 C193,43.5500168 192.669415,44 192.265622,44" id="Fill-44" fill="#D3EAFF" mask="url(#mask-4)"></path>
                <path d="M164.974733,41 L163.025267,41 C163.011447,41 163,40.9848569 163,40.9665743 L163,39.0336103 C163,39.0151431 163.011447,39 163.025267,39 L164.974733,39 C164.988693,39 165,39.0151431 165,39.0336103 L165,40.9665743 C165,40.9848569 164.988693,41 164.974733,41" id="Fill-45" fill="#D3EAFF" mask="url(#mask-4)"></path>
                <path d="M192.265622,51 L167.734378,51 C167.33042,51 167,50.5500674 167,50 C167,49.4501572 167.33042,49 167.734378,49 L192.265622,49 C192.669415,49 193,49.4501572 193,50 C193,50.5500674 192.669415,51 192.265622,51" id="Fill-46" fill="#D3EAFF" mask="url(#mask-4)"></path>
                <path d="M192.265622,54 L167.734378,54 C167.33042,54 167,53.5500674 167,53 C167,52.4501572 167.33042,52 167.734378,52 L192.265622,52 C192.669415,52 193,52.4501572 193,53 C193,53.5500674 192.669415,54 192.265622,54" id="Fill-47" fill="#D3EAFF" mask="url(#mask-4)"></path>
                <path d="M164.974733,51 L163.025267,51 C163.011447,51 163,50.9850402 163,50.9665712 L163,49.0334288 C163,49.0149598 163.011447,49 163.025267,49 L164.974733,49 C164.988693,49 165,49.0149598 165,49.0334288 L165,50.9665712 C165,50.9850402 164.988693,51 164.974733,51" id="Fill-48" fill="#D3EAFF" mask="url(#mask-4)"></path>
                <path d="M192.265622,61 L167.734378,61 C167.33042,61 167,60.5500674 167,60 C167,59.4499326 167.33042,59 167.734378,59 L192.265622,59 C192.669415,59 193,59.4499326 193,60 C193,60.5500674 192.669415,61 192.265622,61" id="Fill-49" fill="#D3EAFF" mask="url(#mask-4)"></path>
                <path d="M192.265622,64 L167.734378,64 C167.33042,64 167,63.5500674 167,63.0002245 C167,62.4501572 167.33042,62 167.734378,62 L192.265622,62 C192.669415,62 193,62.4501572 193,63.0002245 C193,63.5500674 192.669415,64 192.265622,64" id="Fill-50" fill="#D3EAFF" mask="url(#mask-4)"></path>
                <path d="M164.974733,61 L163.025267,61 C163.011447,61 163,60.9850402 163,60.9665712 L163,59.0334288 C163,59.0149598 163.011447,59 163.025267,59 L164.974733,59 C164.988693,59 165,59.0149598 165,59.0334288 L165,60.9665712 C165,60.9850402 164.988693,61 164.974733,61" id="Fill-51" fill="#D3EAFF" mask="url(#mask-4)"></path>
                <path d="M157,110.94201 L157,173.056091 C157,174.125542 156.116611,175 155.036238,175 L27.965841,175 C26.8832294,175 26,174.125542 26,173.056091 L26,110.94201 C26,109.874458 26.8832294,109 27.965841,109 L155.036238,109 C156.116611,109 157,109.874458 157,110.94201" id="Fill-52" fill="#FFFBF8" mask="url(#mask-4)"></path>
                <path d="M157,110.942903 L157,173.054881 C157,174.12525 156.108439,175 155.019595,175 L98,175 L98,109 L155.019595,109 C156.108439,109 157,109.874591 157,110.942903" id="Fill-53" fill="#469FF1" mask="url(#mask-4)"></path>
                <path d="M47.8485364,127.223403 L43.0001588,127.223403 C42.8765827,127.223403 42.7766735,127.123336 42.7766735,127.000079 L42.7766735,121.787227 C42.7766735,121.663811 42.8765827,121.563903 43.0001588,121.563903 C43.1235761,121.563903 43.2234854,121.663811 43.2234854,121.787227 L43.2234854,126.776597 L47.8485364,126.776597 C47.9717949,126.776597 48.0718629,126.876505 48.0718629,127.000079 C48.0718629,127.123336 47.9717949,127.223403 47.8485364,127.223403 M43.0001588,120 C39.1341956,120 36,123.134001 36,127.000079 C36,130.865999 39.1341956,134 43.0001588,134 C46.8659632,134 50,130.865999 50,127.000079 C50,123.134001 46.8659632,120 43.0001588,120" id="Fill-54" fill="#FF7469" mask="url(#mask-4)"></path>
                <path d="M42.0000756,156.435038 C40.4512787,156.435038 39.1956037,155.080064 39.1956037,153.408625 C39.1956037,151.737349 40.4512787,150.382375 42.0000756,150.382375 C43.5488726,150.382375 44.8045476,151.737349 44.8045476,153.408625 C44.8045476,155.080064 43.5488726,156.435038 42.0000756,156.435038 M42.0000756,147 C38.6863459,147 36,149.898782 36,153.474399 C36,157.050341 42.0000756,165 42.0000756,165 C42.0000756,165 48,157.050341 48,153.474399 C48,149.898782 45.3136541,147 42.0000756,147" id="Fill-55" fill="#FF7469" mask="url(#mask-4)"></path>
                <path d="M77.9022259,151 L54.0976092,151 C53.4939819,151 53,150.550098 53,150.00015 C53,149.450053 53.4939819,149 54.0976092,149 L77.9022259,149 C78.5060181,149 79,149.450053 79,150.00015 C79,150.550098 78.5060181,151 77.9022259,151" id="Fill-56" fill="#D3EAFF" mask="url(#mask-4)"></path>
                <path d="M71.96448,155 L53.03552,155 C53.0159282,155 53,154.984828 53,154.966501 L53,153.033348 C53,153.015022 53.0159282,153 53.03552,153 L71.96448,153 C71.9839125,153 72,153.015022 72,153.033348 L72,154.966501 C72,154.984828 71.9839125,155 71.96448,155" id="Fill-57" fill="#D3EAFF" mask="url(#mask-4)"></path>
                <path d="M77.9022259,126 L54.0976092,126 C53.4939819,126 53,125.549947 53,125.00015 C53,124.450053 53.4939819,124 54.0976092,124 L77.9022259,124 C78.5060181,124 79,124.450053 79,125.00015 C79,125.549947 78.5060181,126 77.9022259,126" id="Fill-58" fill="#D3EAFF" mask="url(#mask-4)"></path>
                <path d="M71.96448,130 L53.03552,130 C53.0159282,130 53,129.984829 53,129.966354 L53,128.033346 C53,128.015021 53.0159282,128 53.03552,128 L71.96448,128 C71.9839125,128 72,128.015021 72,128.033346 L72,129.966354 C72,129.984829 71.9839125,130 71.96448,130" id="Fill-59" fill="#D3EAFF" mask="url(#mask-4)"></path>
                <polygon id="Fill-60" fill="#FFB273" mask="url(#mask-4)" points="157 139.226155 157 128.457239 133.766203 119 98 126.267126 98 140.814126 118.295556 148.991077 118.317978 149 157 139.230457"></polygon>
                <polygon id="Fill-61" fill="#CB5806" mask="url(#mask-4)" points="119 148.842526 119 155 99 146.663579 99 141"></polygon>
                <polygon id="Fill-62" fill="#FF7469" mask="url(#mask-4)" points="157 139 119.035442 148.650264 119 148.659082 119 155 157 144.675144 157 139.004252"></polygon>
                <path d="M205.786246,55.9220611 C205.645283,55.848539 205.448554,55.7532544 205.21396,55.6445888 L205.214304,55.6445888 L201.512084,53.0629349 C201.512084,53.0629349 201.042207,53.2917356 201.512084,53.7293389 C201.572325,53.7853627 201.654252,53.8584437 201.751326,53.9432881 L200.337563,53 C200.337563,53 200.087823,53.213361 200.249268,53.5521507 C200.364758,53.7944795 201.690225,54.7610006 202.435316,55.2915358 C201.986437,55.1071425 201.355803,54.7011536 200.410885,53.8909404 C199.821559,53.3855497 200.012608,54.1469443 200.102453,54.4805874 C200.260972,55.0700873 202.100894,57.0588593 202.747535,57.954211 C203.394175,58.8495628 203.717237,59.7334451 203.264744,59.346866 C202.812078,58.9601399 200.355119,57.6665927 200.096429,57.954211 C199.837738,58.2419764 201.324994,59.346866 202.036178,60.2306013 C202.747535,61.1144836 203.523262,62.6058052 206.044937,62.9372427 C208.566439,63.2686802 209,62.1793772 209,62.1793772 C209,62.1793772 206.950096,56.5296474 205.786246,55.9220611" id="Fill-63" fill="#FF9591" mask="url(#mask-4)"></path>
                <path d="M279,115.226387 C279,115.226387 278.386454,120.826486 277.713272,121.885742 C277.040262,122.944998 273.910833,126.021277 272.952704,126.994211 C272.887225,127.060848 272.265429,126.545339 272.736158,125.799745 C274.635058,122.792039 274.106411,123.513753 273.449556,121.536906 C273.124566,120.559131 272.922284,123.372734 272.384186,123.438887 C271.845915,123.505202 272.037025,120.472648 272.017605,119.550055 C271.998184,118.6273 274.715489,118.194078 275.036011,114.866578 C275.242073,112.725316 279,115.226387 279,115.226387" id="Fill-64" fill="#FF9591" mask="url(#mask-4)"></path>
                <path d="M261,57.8298328 C261,57.8298328 256.380965,80.4609295 230.961385,87.8553447 C223.02653,90.1634632 205,64.0864859 205,64.0864859 C205,64.0864859 205.633681,61.6823423 209.60415,62.2345268 C209.60415,62.2345268 227.156259,73.8337567 229.366059,75.0940667 C231.326804,76.2121765 244.221624,60.721292 250.099698,58.2224014 C255.978092,55.7235109 261,57.8298328 261,57.8298328" id="Fill-65" fill="#153CBC" mask="url(#mask-4)"></path>
                <path d="M291.389985,200.358536 C291.389985,200.358536 294.534071,203.226502 293.920638,205.264226 C293.307045,207.30195 290.469676,208.660486 290.086359,211.151055 C289.703043,213.641464 288.1693,215 286.789075,215 L280.208549,215 C280.208549,215 279.19233,213.247478 281.646383,212.719185 C284.100117,212.190892 285.025374,209.264226 284.872016,206.547314 C284.718657,203.830243 285.101973,200.2078 285.101973,200.2078 L290.316317,199 L291.389985,200.358536 Z" id="Fill-66" fill="#153CBC" mask="url(#mask-4)"></path>
                <path d="M252.883268,207.335949 C252.883268,207.335949 253.460015,213.371756 252.049538,214 L234,213.966368 C234,213.966368 234,212.082077 236.899223,211.66315 C239.79812,211.244517 244.891001,209.709087 245.752941,206.289072 C246.615044,202.869205 252.883268,207.335949 252.883268,207.335949" id="Fill-67" fill="#153CBC" mask="url(#mask-4)"></path>
                <path d="M238,115.596074 C238,115.596074 238.930478,127.117651 240.024165,140.966996 C241.510731,159.780619 243.298371,182.889473 243.475446,187.267431 C243.780983,194.869343 245.007914,207.029285 245.007914,207.029285 C245.007914,207.029285 247.916655,209.918153 253.738759,208.700536 C253.738759,208.700536 258.926837,191.341949 260.408621,172.975535 C260.431573,172.674504 260.454683,172.371225 260.477475,172.068106 C261.856298,153.370943 264,114 264,114 L238,115.596074 Z" id="Fill-68" fill="#FF7469" mask="url(#mask-4)"></path>
                <path d="M238,115.596736 C238,115.596736 238.930478,127.123092 240.024165,140.978183 L260.408621,173 C260.431573,172.698844 260.454683,172.395439 260.477475,172.092194 C261.856298,153.387276 264,114 264,114 L238,115.596736 Z" id="Fill-69" fill="#FF5549" mask="url(#mask-4)"></path>
                <path d="M242,116.529342 C242,116.529342 258.715068,158.281563 269.705859,177.90289 C280.696173,197.524217 284.130994,203 284.130994,203 C284.130994,203 290.427715,200.490273 291,198.779081 C291,198.779081 286.797209,160.899304 279.436924,151.6652 C275.277972,146.447398 270.392506,130.789009 270.163623,125.313226 C269.934582,119.837443 268.675333,109 268.675333,109 L242,116.529342 Z" id="Fill-70" fill="#FF7469" mask="url(#mask-4)"></path>
                <path d="M264,53.0261502 C264,53.0261502 252.58235,58.611217 246,56.5389467 C246,56.5389467 247.620372,54.466839 250.455742,52.9248696 C250.22788,51.5854615 250.05069,50.4230913 249.949346,49.4374339 C249.670972,47.1629275 249.670972,45.8739158 249.670972,45.8739158 L254.075722,42.3612819 L258.253091,39 C257.924046,48.4517765 264,53.0261502 264,53.0261502" id="Fill-71" fill="#FF9591" mask="url(#mask-4)"></path>
                <path d="M270,110.949263 C270.024531,111.643413 268.551601,112.434499 267.900658,112.7304 C263.080923,114.859648 258.58397,116.343451 253.487496,116.838318 C247.467614,117.457339 240.347583,116.095779 237.899187,116.145919 C237.649506,116.145919 237.424983,116.047232 237.225143,115.873416 C237.050461,115.74942 236.925778,108.450576 237.050461,99.2696797 C237.050461,98.9002409 237.050461,98.528892 237.075461,98.1577023 L237.075461,98.0337071 C237.125302,94.4461235 237.250143,90.6845647 237.424983,86.9230058 C237.774505,78.6587821 238.42529,70.6907779 239.523856,66.2867998 C240.846787,61.0901439 243.845969,57.6513864 246.568888,55.1509494 L248.815703,53.1724382 C251.064101,53.6171655 253.437497,53.4933295 255.810893,52.3308944 C258.408971,51.070091 261.206731,49.7083723 261.656252,50.0547311 C265.053057,52.5534173 267.351612,58.1699696 268.576601,65.3468877 C268.581981,65.3828606 268.589259,65.4169234 268.594481,65.4527372 C269.281025,69.5569939 269.625168,74.1473627 269.600168,78.9548425 C269.600168,80.737731 269.550168,82.5674161 269.450328,84.3738621 C268.949224,92.5572263 269.284506,99.8420631 269.612668,104.889893 C269.67675,105.887107 269.742888,106.796618 269.79985,107.609192 C269.899532,109.04413 269.97469,110.158017 270,110.949263" id="Fill-72" fill="#004D9A" mask="url(#mask-4)"></path>
                <path d="M270,105 C252.451316,82.9996206 263.337783,67.0103082 263.337783,67.0103082 L269.043221,65 C269.688359,69.1626877 270.011746,73.8185887 269.988254,78.6947002 C269.988254,80.5032027 269.94127,82.3590084 269.847599,84.1910818 C269.376718,92.4914333 269.691779,99.8801072 270,105" id="Fill-73" fill="#153CBC" mask="url(#mask-4)"></path>
                <path d="M259,42.2500747 C259,42.2500747 256.000167,47.5251223 250.289365,49 C250,46.7498105 250,45.4748317 250,45.4748317 L254.578842,42 L259,42.2500747 Z" id="Fill-74" fill="#FF8585" mask="url(#mask-4)"></path>
                <path d="M247.103636,44.7845614 C247.103636,44.7845614 257.885223,46.5704146 258.89743,39.8587181 C259.909637,33.1471823 261.982622,28.8575021 255.141612,27.4334484 C248.300761,26.0093948 246.573961,28.3695306 245.689688,30.5277916 C244.805416,32.6860525 244.325105,44.1469518 247.103636,44.7845614" id="Fill-75" fill="#FF9591" mask="url(#mask-4)"></path>
                <path d="M263.178851,27.6681945 C263.276227,27.5557522 263.500493,27.4650986 264,27.4375845 C264,27.4375845 263.600868,27.18614 263.066955,27.1727805 C262.962477,26.4726802 262.592857,25.2337476 261.397512,24.9326822 C261.397512,24.9326822 262.039848,25.2778021 262.12381,26.0219568 C260.739393,24.5889937 257.772336,23.5458411 249.556585,24.1993422 C238.72935,25.0605515 242.297553,32.0466046 243.699172,32.8793454 C245.101106,33.7120863 248.629537,31.4290468 251.241021,31.6378682 C253.852821,31.8466895 254.349488,35.6496878 255.235502,36.1716617 C256.1212,36.6934766 255.773044,35.7707183 256.971704,35.2247292 C258.170679,34.678581 258.284469,36.6804352 257.938365,37.9818711 C257.592103,39.283307 259.239293,41 259.239293,41 L260.903528,39.1936076 C262.567921,37.3872153 264.136674,29.7358919 263.379917,28.1049222 C263.313316,27.9608307 263.24703,27.8148307 263.178851,27.6681945" id="Fill-76" fill="#203765" mask="url(#mask-4)"></path>
                <path d="M262.296665,50 C262.296665,50 269.294662,53.25293 272.649643,58.2537245 C277.853811,66.0108222 283.886427,94.2817908 283.997961,96.8998312 C284.109658,99.5178717 279.594885,118 279.594885,118 C279.594885,118 275.016121,117.704134 273.835161,115.435506 C273.835161,115.435506 274.749742,96.4452426 274.170253,95.2243749 C273.5906,94.0035071 255.081787,69.7509485 257.163162,64.5757671 C259.244373,59.4005858 262.296665,50 262.296665,50" id="Fill-77" fill="#004D9A" mask="url(#mask-4)"></path>
                <path d="M278,121 L274.372492,127 C274.372492,127 273.939003,126.819785 274.007299,126.39076 C274.075594,125.962088 275.125348,122.712396 275.125348,122.712396 L278,121 Z" id="Fill-78" fill="#FF9591" mask="url(#mask-4)"></path>
                <path d="M274,122 C274,122 271.531908,124.447137 272.079213,125 L273.860986,123.801522 L274,122 Z" id="Fill-79" fill="#FF9591" mask="url(#mask-4)"></path>
                <path d="M127,128.063153 C127,128.063153 125.96285,127.686535 125,128.772736 C125,128.772736 126.32284,129.612637 127,128.063153" id="Fill-80" fill="#5F8AD4" mask="url(#mask-4)"></path>
                <path d="M125.500079,124.111113 C117.905062,124.66936 111.010691,125.127168 106.176503,126.753956 C101.726058,128.251794 99,130.266893 99,132.483194 C99,134.946219 101.962306,137.581611 107.732277,138.693244 C112.581549,139.627165 120.215782,141.542797 125.500079,140.853494 C132.128354,139.98907 138.018354,140.106843 142.638681,138.867231 L140.495463,138.067282 L125.528658,132.483194 L149.637046,133.163102 L151.896007,133.226443 C151.964753,132.981502 152,132.733158 152,132.483194 C152,130.111537 148.877973,127.970079 143.861677,126.446807 C139.098616,125.000323 132.609264,123.588506 125.500079,124.111113" id="Fill-81" fill="#FFE5CC" mask="url(#mask-4)"></path>
                <path d="M149.891997,133.717908 L126.020216,133.074327 L140.840192,138.360061 C139.369341,138.685148 137.759988,138.962546 136.041217,139.184586 C132.991669,139.578525 129.462317,139.308641 126.020216,139.797959 C120.315872,140.608836 115.051714,138.748326 110.829855,138.277409 C106.281943,137.770304 101.520384,135.109649 102.038861,133.074327 C102.57746,130.960187 105.658451,128.510839 111.180432,127.791507 C115.329503,127.250512 120.802592,126 126.405537,126 C130.954549,126 134.774109,127.10315 138.445578,127.321357 C145.375056,127.733083 150,130.636173 150,133.074327 C150,133.291614 149.96337,133.505528 149.891997,133.717908" id="Fill-82" fill="#FF7643" mask="url(#mask-4)"></path>
                <path d="M112,132.499817 C112,132.77619 111.552239,133 110.99993,133 C110.447761,133 110,132.77619 110,132.499817 C110,132.223626 110.447761,132 110.99993,132 C111.552239,132 112,132.223626 112,132.499817" id="Fill-83" fill="#203765" mask="url(#mask-4)"></path>
                <path d="M120,130.5 C120,130.77619 119.552348,131 119.00014,131 C118.447793,131 118,130.77619 118,130.5 C118,130.22381 118.447793,130 119.00014,130 C119.552348,130 120,130.22381 120,130.5" id="Fill-84" fill="#203765" mask="url(#mask-4)"></path>
                <path d="M115,129.5 C115,129.776222 114.552211,130 114,130 C113.447789,130 113,129.776222 113,129.5 C113,129.223778 113.447789,129 114,129 C114.552211,129 115,129.223778 115,129.5" id="Fill-85" fill="#203765" mask="url(#mask-4)"></path>
                <path d="M124,128.5001 C124,128.776072 123.55235,129 123,129 C122.447802,129 122,128.776072 122,128.5001 C122,128.223729 122.447802,128 123,128 C123.55235,128 124,128.223729 124,128.5001" id="Fill-86" fill="#203765" mask="url(#mask-4)"></path>
                <path d="M124,132.499937 C124,132.776204 123.328382,133 122.5,133 C121.671618,133 121,132.776204 121,132.499937 C121,132.223796 121.671618,132 122.5,132 C123.328382,132 124,132.223796 124,132.499937" id="Fill-87" fill="#203765" mask="url(#mask-4)"></path>
                <path d="M127,130.500092 C127,130.776231 126.552379,131 125.99993,131 C125.447761,131 125,130.776231 125,130.500092 C125,130.223769 125.447761,130 125.99993,130 C126.552379,130 127,130.223769 127,130.500092" id="Fill-88" fill="#203765" mask="url(#mask-4)"></path>
                <path d="M133,130.00016 C133,130.120418 132.776065,130.217998 132.5,130.217998 C132.223935,130.217998 132,130.120418 132,130.00016 C132,129.879582 132.223935,129.782002 132.5,129.782002 C132.776065,129.782002 133,129.879582 133,130.00016" id="Fill-89" fill="#203765" mask="url(#mask-4)"></path>
                <path d="M130,128 C130,128.120418 129.776174,128.217998 129.50007,128.217998 C129.223966,128.217998 129,128.120418 129,128 C129,127.879582 129.223966,127.782002 129.50007,127.782002 C129.776174,127.782002 130,127.879582 130,128" id="Fill-90" fill="#203765" mask="url(#mask-4)"></path>
                <path d="M124,136 C124,136.120418 123.776034,136.217998 123.50007,136.217998 C123.223826,136.217998 123,136.120418 123,136 C123,135.879582 123.223826,135.782002 123.50007,135.782002 C123.776034,135.782002 124,135.879582 124,136" id="Fill-91" fill="#203765" mask="url(#mask-4)"></path>
                <path d="M127,137.00016 C127,137.120418 126.776174,137.217998 126.50007,137.217998 C126.223826,137.217998 126,137.120418 126,137.00016 C126,136.879582 126.223826,136.782002 126.50007,136.782002 C126.776174,136.782002 127,136.879582 127,137.00016" id="Fill-92" fill="#203765" mask="url(#mask-4)"></path>
                <path d="M119,134.5 C119,134.776013 118.328536,135 117.5,135 C116.671464,135 116,134.776013 116,134.5 C116,134.223987 116.671464,134 117.5,134 C118.328536,134 119,134.223987 119,134.5" id="Fill-93" fill="#203765" mask="url(#mask-4)"></path>
                <path d="M112,134.848332 C112,134.848332 110.985126,134.634966 110,135.064573 C110,135.064573 111.283754,135.49434 112,134.848332" id="Fill-94" fill="#5F8AD4" mask="url(#mask-4)"></path>
                <path d="M118,131.129532 C118,131.129532 116.984986,130.607964 116,131.658013 C116,131.658013 117.283428,132.707485 118,131.129532" id="Fill-95" fill="#5F8AD4" mask="url(#mask-4)"></path>
                <path d="M130,130 C130,130 128.882353,130.003907 128,130.980955 C128,130.980955 129.464086,131.220566 130,130" id="Fill-96" fill="#5F8AD4" mask="url(#mask-4)"></path>
                <path d="M136,130.713909 C136,130.713909 135.105286,129.737099 134,130.068677 C134,130.068677 135.071857,131.625002 136,130.713909" id="Fill-97" fill="#5F8AD4" mask="url(#mask-4)"></path>
                <path d="M127,131.994989 C127,131.994989 126.296561,131.237779 125,131 C125,131 125.735505,132.082291 127,131.994989" id="Fill-98" fill="#5F8AD4" mask="url(#mask-4)"></path>
                <path d="M126,134.003707 C126,134.003707 124.914385,133.889135 124,134.933925 C124,134.933925 125.408021,135.369554 126,134.003707" id="Fill-99" fill="#5F8AD4" mask="url(#mask-4)"></path>
                <path d="M127,136.785857 C127,136.785857 126.125566,135.816124 125,136.031108 C125,136.031108 126.036499,137.547925 127,136.785857" id="Fill-100" fill="#5F8AD4" mask="url(#mask-4)"></path>
                <path d="M127,135.000629 C127,135.000629 125.900775,134.941913 125,135.958864 C125,135.958864 126.43197,136.302982 127,135.000629" id="Fill-101" fill="#5F8AD4" mask="url(#mask-4)"></path>
                <path d="M124,130.101488 C124,130.101488 122.976873,129.634803 122,130.702942 C122,130.702942 123.297956,131.675341 124,130.101488" id="Fill-102" fill="#5F8AD4" mask="url(#mask-4)"></path>
                <path d="M121,128.904532 C121,128.904532 120.175188,127.998477 119,128 C119,128 119.949047,129.366819 121,128.904532" id="Fill-103" fill="#5F8AD4" mask="url(#mask-4)"></path>
                <path d="M112.610519,135.160978 L112.610519,135.160978 C111.317407,135.450353 110.66873,136.036102 111.168975,136.462516 C111.545495,136.783466 112.377268,136.715435 113.317277,136.538847 L113.795026,136.946056 C113.861037,137.002206 114.05446,137.016854 114.225019,136.978932 L115.14198,136.773538 C115.312169,136.735453 115.39791,136.658146 115.331899,136.601996 L114.857469,136.197391 C115.723908,135.974256 116.260292,135.741519 115.871049,135.409828 C115.370989,134.983251 113.903815,134.87144 112.610519,135.160978" id="Fill-104" fill="#FF7469" mask="url(#mask-4)"></path>
                <path d="M134.711555,128.160945 L134.711555,128.160945 C135.74601,128.450224 136.264957,129.035968 135.86489,129.4624 C135.563619,129.783422 134.898108,129.715544 134.146287,129.538663 L133.763953,129.945929 C133.711117,130.002228 133.55641,130.017001 133.419979,129.97867 L132.686614,129.77344 C132.550182,129.735508 132.481785,129.658048 132.534621,129.601949 L132.91406,129.197477 C132.220864,128.97408 131.791666,128.741499 132.103251,128.409697 C132.503318,127.983265 133.676919,127.871466 134.711555,128.160945" id="Fill-105" fill="#FF7469" mask="url(#mask-4)"></path>
                <path d="M121.711481,133.160941 L121.711481,133.160941 C122.745936,133.450412 123.265064,134.036143 122.864816,134.462564 C122.563545,134.783578 121.898034,134.715503 121.146032,134.538626 L120.763879,134.945882 C120.711224,135.002179 120.556336,135.016952 120.419905,134.978822 L119.686721,134.773597 C119.550289,134.735466 119.481712,134.658207 119.534547,134.60211 L119.913986,134.197448 C119.220791,133.974056 118.791773,133.741681 119.103177,133.409687 C119.503244,132.983265 120.677026,132.871469 121.711481,133.160941" id="Fill-106" fill="#FF7469" mask="url(#mask-4)"></path>
                <path d="M113.288445,130.160945 L113.288445,130.160945 C112.25399,130.450423 111.735043,131.036168 112.13511,131.4626 C112.436381,131.783422 113.101892,131.715544 113.853713,131.538663 L114.236047,131.945929 C114.288702,132.002228 114.44359,132.017001 114.580021,131.97867 L115.313386,131.77364 C115.449818,131.735508 115.518215,131.658247 115.465379,131.602148 L115.08594,131.197278 C115.779136,130.97408 116.208334,130.741499 115.896749,130.409697 C115.496682,129.983265 114.323081,129.871466 113.288445,130.160945" id="Fill-107" fill="#FF7469" mask="url(#mask-4)"></path>
                <path d="M153.567385,133.437992 L131.950666,132.833023 L129,132 L129,132.750656 L145.871574,139 C150.965554,137.643873 154.381168,135.685785 155,133.47809 L155,132.727433 L153.567385,133.437992 Z" id="Fill-108" fill="#FFE5CC" mask="url(#mask-4)"></path>
                <path d="M155,132.698741 C154.381337,134.818058 150.964425,136.697779 145.871137,138 L138.224524,135.280571 L136.632923,134.714778 L136.631439,134.714778 L129,132 L155,132.698741 Z" id="Fill-109" fill="#FF7E58" mask="url(#mask-4)"></path>
                <path d="M138,133.5 C138,133.776374 137.552316,134 137.00007,134 C136.447824,134 136,133.776374 136,133.5 C136,133.22381 136.447824,133 137.00007,133 C137.552316,133 138,133.22381 138,133.5" id="Fill-110" fill="#203765" mask="url(#mask-4)"></path>
                <path d="M139,134.525241 C139,134.735645 138.758832,134.915222 138.408759,135 L137,134.320424 C137.158102,134.131407 137.528613,134 137.959124,134 C138.534161,134 139,134.235645 139,134.525241" id="Fill-111" fill="#203765" mask="url(#mask-4)"></path>
                <path d="M144,134.99992 C144,135.120338 143.775925,135.217918 143.5,135.217918 C143.223935,135.217918 143,135.120338 143,134.99992 C143,134.879662 143.223935,134.782082 143.5,134.782082 C143.775925,134.782082 144,134.879662 144,134.99992" id="Fill-112" fill="#203765" mask="url(#mask-4)"></path>
                <path d="M146,133.99992 C146,134.120498 145.776065,134.218078 145.50014,134.218078 C145.223935,134.218078 145,134.120498 145,133.99992 C145,133.879502 145.223935,133.781922 145.50014,133.781922 C145.776065,133.781922 146,133.879502 146,133.99992" id="Fill-113" fill="#203765" mask="url(#mask-4)"></path>
                <path d="M141,133 C141,133.120418 140.776034,133.217998 140.50007,133.217998 C140.223826,133.217998 140,133.120418 140,133 C140,132.879582 140.223826,132.782002 140.50007,132.782002 C140.776034,132.782002 141,132.879582 141,133" id="Fill-114" fill="#203765" mask="url(#mask-4)"></path>
                <path d="M144,132.499778 C144,132.7759 143.552246,133 143,133 C142.447583,133 142,132.7759 142,132.499778 C142,132.223877 142.447583,132 143,132 C143.552246,132 144,132.223877 144,132.499778" id="Fill-115" fill="#203765" mask="url(#mask-4)"></path>
                <path d="M143,134.5 C143,134.776463 142.77617,135 142.499874,135 C142.22383,135 142,134.776463 142,134.5 C142,134.223866 142.22383,134 142.499874,134 C142.77617,134 143,134.223866 143,134.5" id="Fill-116" fill="#203765" mask="url(#mask-4)"></path>
                <path d="M134,133.00008 C134,133.088557 133.776145,133.160105 133.5,133.160105 C133.224046,133.160105 133,133.088557 133,133.00008 C133,132.911603 133.224046,132.839895 133.5,132.839895 C133.776145,132.839895 134,132.911603 134,133.00008" id="Fill-117" fill="#203765" mask="url(#mask-4)"></path>
                <path d="M140,133 C140,133 138.882327,133.00402 138,133.981 C138,133.981 139.464153,134.220353 140,133" id="Fill-118" fill="#5F8AD4" mask="url(#mask-4)"></path>
                <path d="M149,133.88567 C149,133.88567 148.164849,132.963381 147,133.001128 C147,133.001128 147.967501,134.402184 149,133.88567" id="Fill-119" fill="#5F8AD4" mask="url(#mask-4)"></path>
                <path d="M142,134.856133 C142,134.856133 141.150868,133.913766 140,134.006409 C140,134.006409 140.991325,135.451529 142,134.856133" id="Fill-120" fill="#5F8AD4" mask="url(#mask-4)"></path>
                <path d="M146,135.778096 C146,135.778096 144.935703,135.677641 144,136.174005 C144,136.174005 145.370204,136.450295 146,135.778096" id="Fill-121" fill="#5F8AD4" mask="url(#mask-4)"></path>
                <path d="M133,131.856227 C133,131.856227 132.486696,131.699556 132,132.077418 C132,132.077418 132.652013,132.408807 133,131.856227" id="Fill-122" fill="#5F8AD4" mask="url(#mask-4)"></path>
                <path d="M102.999919,39.0980286 C99.5608197,39.5905988 96.4387339,39.9946388 94.2498326,41.4300229 C92.2344527,42.7515133 91,44.5297095 91,46.4851276 C91,48.6584785 92.3414223,50.9838492 94.9543066,51.9646277 C97.1500254,52.7887014 100.607142,54.478852 102.999919,53.8707726 C106.001562,53.1080885 108.668662,53.211966 110.760982,52.1181015 L109.790464,51.412445 L103.012905,46.4851276 L113.929979,47.0849679 L114.952927,47.1408647 C114.984093,46.9248705 115,46.7058068 115,46.4851276 C115,44.3923908 113.586345,42.5030473 111.314822,41.1589397 C109.157898,39.8825222 106.219397,38.6369609 102.999919,39.0980286" id="Fill-123" fill="#FFE5CC" mask="url(#mask-4)"></path>
                <path d="M113.950382,47.1666325 L103.009153,46.5691046 L109.801708,51.4772654 C109.127561,51.7790065 108.389805,52.0366531 107.602107,52.2428026 C106.20452,52.6085933 104.586827,52.3580275 103.009153,52.8123289 C100.394717,53.5654746 97.9820043,51.8375845 96.0469215,51.4005025 C93.9624981,50.9294645 91.7801412,48.4590499 92.0178172,46.5691046 C92.2644406,44.605776 93.6766687,42.3313723 96.2076497,41.6633578 C98.109383,41.1612606 100.617751,40 103.185823,40 C105.270735,40 107.021338,41.0244713 108.704266,41.2269195 C111.880112,41.6091249 114,44.3051614 114,46.5691046 C114,46.7707481 113.983081,46.969334 113.950382,47.1666325" id="Fill-124" fill="#FF7643" mask="url(#mask-4)"></path>
                <path d="M98,45.5 C98,45.7760762 97.7762658,46 97.5,46 C97.2238924,46 97,45.7760762 97,45.5 C97,45.2239238 97.2238924,45 97.5,45 C97.7762658,45 98,45.2239238 98,45.5" id="Fill-125" fill="#203765" mask="url(#mask-4)"></path>
                <path d="M101,43.4998965 C101,43.7761225 100.775985,44 100.499921,44 C100.223857,44 100,43.7761225 100,43.4998965 C100,43.2238775 100.223857,43 100.499921,43 C100.775985,43 101,43.2238775 101,43.4998965" id="Fill-126" fill="#203765" mask="url(#mask-4)"></path>
                <path d="M99,42.5 C99,42.7762431 98.7761567,43 98.500096,43 C98.2238433,43 98,42.7762431 98,42.5 C98,42.2237569 98.2238433,42 98.500096,42 C98.7761567,42 99,42.2237569 99,42.5" id="Fill-127" fill="#203765" mask="url(#mask-4)"></path>
                <path d="M103,42.5 C103,42.7760252 102.776189,43 102.5,43 C102.223983,43 102,42.7760252 102,42.5 C102,42.2237494 102.223983,42 102.5,42 C102.776189,42 103,42.2237494 103,42.5" id="Fill-128" fill="#203765" mask="url(#mask-4)"></path>
                <path d="M103,45.4999286 C103,45.7761109 102.552108,46 102,46 C101.447673,46 101,45.7761109 101,45.4999286 C101,45.2237462 101.447673,45 102,45 C102.552108,45 103,45.2237462 103,45.4999286" id="Fill-129" fill="#203765" mask="url(#mask-4)"></path>
                <path d="M105,43.5 C105,43.7760762 104.775985,44 104.499921,44 C104.223857,44 104,43.7760762 104,43.5 C104,43.2239238 104.223857,43 104.499921,43 C104.775985,43 105,43.2239238 105,43.5" id="Fill-130" fill="#203765" mask="url(#mask-4)"></path>
                <path d="M107,44 C107,44.1065234 106.775949,44.192924 106.5,44.192924 C106.223734,44.192924 106,44.1065234 106,44 C106,43.8934766 106.223734,43.807076 106.5,43.807076 C106.775949,43.807076 107,43.8934766 107,44" id="Fill-131" fill="#203765" mask="url(#mask-4)"></path>
                <path d="M106,42 C106,42.1065234 105.77602,42.192924 105.500158,42.192924 C105.22398,42.192924 105,42.1065234 105,42 C105,41.8934766 105.22398,41.807076 105.500158,41.807076 C105.77602,41.807076 106,41.8934766 106,42" id="Fill-132" fill="#203765" mask="url(#mask-4)"></path>
                <path d="M103,48 C103,48.1065234 102.776266,48.192924 102.5,48.192924 C102.223734,48.192924 102,48.1065234 102,48 C102,47.8934766 102.223734,47.807076 102.5,47.807076 C102.776266,47.807076 103,47.8934766 103,48" id="Fill-133" fill="#203765" mask="url(#mask-4)"></path>
                <path d="M105,49 C105,49.1065234 104.776266,49.192924 104.5,49.192924 C104.224051,49.192924 104,49.1065234 104,49 C104,48.8934766 104.224051,48.807076 104.5,48.807076 C104.776266,48.807076 105,48.8934766 105,49" id="Fill-134" fill="#203765" mask="url(#mask-4)"></path>
                <path d="M101,47.5 C101,47.7761085 100.776082,48 100.50007,48 C100.223918,48 100,47.7761085 100,47.5 C100,47.2238915 100.223918,47 100.50007,47 C100.776082,47 101,47.2238915 101,47.5" id="Fill-135" fill="#203765" mask="url(#mask-4)"></path>
                <path d="M98,46.8658362 C98,46.8658362 97.4925244,46.6770646 97,47.0571631 C97,47.0571631 97.6420368,47.4372617 98,46.8658362" id="Fill-136" fill="#5F8AD4" mask="url(#mask-4)"></path>
                <path d="M100,45.1295211 C100,45.1295211 99.4924848,44.6080355 99,45.6578427 C99,45.6578427 99.6418292,46.7076499 100,45.1295211" id="Fill-137" fill="#5F8AD4" mask="url(#mask-4)"></path>
                <path d="M106,44 C106,44 105.441277,44.0039939 105,44.9810243 C105,44.9810243 105.732161,45.220237 106,44" id="Fill-138" fill="#5F8AD4" mask="url(#mask-4)"></path>
                <path d="M108,44.7137515 C108,44.7137515 107.552814,43.7368125 107,44.0688367 C107,44.0688367 107.536043,45.6251297 108,44.7137515" id="Fill-139" fill="#5F8AD4" mask="url(#mask-4)"></path>
                <path d="M105,45.9949924 C105,45.9949924 104.648304,45.2378395 104,45 C104,45 104.367858,46.0822608 105,45.9949924" id="Fill-140" fill="#5F8AD4" mask="url(#mask-4)"></path>
                <path d="M104,46.0037126 C104,46.0037126 103.457193,45.8890617 103,46.9340145 C103,46.9340145 103.703995,47.3693388 104,46.0037126" id="Fill-141" fill="#5F8AD4" mask="url(#mask-4)"></path>
                <path d="M104,49.7858533 C104,49.7858533 103.562801,48.8160318 103,49.0311392 C103,49.0311392 103.518233,50.5479216 104,49.7858533" id="Fill-142" fill="#5F8AD4" mask="url(#mask-4)"></path>
                <path d="M105,47.0006302 C105,47.0006302 104.450259,46.941879 104,47.9588746 C104,47.9588746 104.715877,48.3029504 105,47.0006302" id="Fill-143" fill="#5F8AD4" mask="url(#mask-4)"></path>
                <path d="M103,43.8312224 C103,43.8312224 102.488416,43.6335073 102,44.0859524 C102,44.0859524 102.64907,44.4978323 103,43.8312224" id="Fill-144" fill="#5F8AD4" mask="url(#mask-4)"></path>
                <path d="M102,42.9045822 C102,42.9045822 101.587518,41.9985245 101,42 C101,42 101.474495,43.3667208 102,42.9045822" id="Fill-145" fill="#5F8AD4" mask="url(#mask-4)"></path>
                <path d="M98.6442055,48.1608945 L98.6442055,48.1608945 C98.1269862,48.4504053 97.8675439,49.0360484 98.0675376,49.4624055 C98.218074,49.7833689 98.5509528,49.7154975 98.9267944,49.5387378 L99.1181289,49.9459658 C99.1444395,50.0022493 99.2218725,50.016964 99.2899802,49.9787059 L99.6568296,49.7736204 C99.7249374,49.7353623 99.7590745,49.6581104 99.7327639,49.6018268 L99.5429281,49.1973578 C99.8896282,48.974063 100.104109,48.7415714 99.9484107,48.40994 C99.748417,47.983399 99.1614248,47.8713837 98.6442055,48.1608945" id="Fill-146" fill="#FF7469" mask="url(#mask-4)"></path>
                <path d="M107.355616,42.0805006 L107.355616,42.0805006 C107.873028,42.2252336 108.132449,42.518084 107.93247,42.7311789 C107.78172,42.8917051 107.448966,42.857637 107.073112,42.7693081 L106.881917,42.972927 C106.855566,43.0011291 106.778148,43.0084617 106.709923,42.9893971 L106.343261,42.8866287 C106.275035,42.8676769 106.240922,42.8289837 106.267273,42.8008944 L106.457038,42.5987419 C106.110394,42.4870617 105.895912,42.3707563 106.051565,42.2049281 C106.251748,41.9917205 106.838612,41.9356547 107.355616,42.0805006" id="Fill-147" fill="#FF7469" mask="url(#mask-4)"></path>
                <path d="M102.355679,46.0804545 L102.355679,46.0804545 C102.873115,46.2251939 103.132549,46.518057 102.932356,46.7311612 C102.781803,46.8916944 102.449034,46.8577376 102.072958,46.769292 L101.881958,46.9730327 C101.855606,47.0011232 101.778185,47.008456 101.709956,46.9893906 L101.343277,46.8867306 C101.275048,46.8676651 101.240933,46.829083 101.267285,46.8009925 L101.45706,46.5987184 C101.1104,46.4870334 100.895908,46.3708358 101.051567,46.2048875 C101.251556,45.9916705 101.838447,45.9357152 102.355679,46.0804545" id="Fill-148" fill="#FF7469" mask="url(#mask-4)"></path>
                <path d="M98.644266,44.0804545 L98.644266,44.0804545 C98.1270581,44.2251939 97.8674328,44.518057 98.067616,44.7311612 C98.2181619,44.8916944 98.5509153,44.8577376 98.9269736,44.769292 L99.1177604,44.9730327 C99.1443153,45.0011232 99.221733,45.008456 99.2897545,44.9893906 L99.656825,44.8867306 C99.7248464,44.8676651 99.7591635,44.829083 99.7326086,44.8009925 L99.5428431,44.5987184 C99.8896911,44.4870334 100.103969,44.3708358 99.9485204,44.2048875 C99.7483373,43.9916705 99.1614738,43.9357152 98.644266,44.0804545" id="Fill-149" fill="#FF7469" mask="url(#mask-4)"></path>
                <path d="M116.39393,45.2326284 L107.248217,44.7142318 L106,44 L106,44.6433427 L113.137979,50 C115.293017,48.8376133 116.738163,47.1592577 117,45.26694 L117,44.6235973 L116.39393,45.2326284 Z" id="Fill-150" fill="#FFE5CC" mask="url(#mask-4)"></path>
                <path d="M117,44.6989095 C116.738159,46.8181132 115.292677,48.6978824 113.137609,50 L109.902565,47.2806694 L109.229215,46.7149805 L109.228585,46.7149805 L106,44 L117,44.6989095 Z" id="Fill-151" fill="#FF7E58" mask="url(#mask-4)"></path>
                <path d="M109,45.5001035 C109,45.7761225 108.776108,46 108.5,46 C108.223734,46 108,45.7761225 108,45.5001035 C108,45.2240844 108.223734,45 108.5,45 C108.776108,45 109,45.2240844 109,45.5001035" id="Fill-152" fill="#203765" mask="url(#mask-4)"></path>
                <path d="M109,46.5251579 C109,46.7355696 108.879532,46.9154868 108.704351,47 L108,46.3201917 C108.078939,46.1311261 108.264338,46 108.479565,46 C108.766974,46 109,46.2356785 109,46.5251579" id="Fill-153" fill="#203765" mask="url(#mask-4)"></path>
                <path d="M111,47 C111,47.1065234 110.775949,47.192924 110.5,47.192924 C110.223734,47.192924 110,47.1065234 110,47 C110,46.8934766 110.223734,46.807076 110.5,46.807076 C110.775949,46.807076 111,46.8934766 111,47" id="Fill-154" fill="#203765" mask="url(#mask-4)"></path>
                <path d="M113,46 C113,46.1065234 112.776266,46.192924 112.5,46.192924 C112.224051,46.192924 112,46.1065234 112,46 C112,45.8934766 112.224051,45.807076 112.5,45.807076 C112.776266,45.807076 113,45.8934766 113,46" id="Fill-155" fill="#203765" mask="url(#mask-4)"></path>
                <path d="M110,46 C110,46.1065234 109.776266,46.192924 109.499684,46.192924 C109.223734,46.192924 109,46.1065234 109,46 C109,45.8934766 109.223734,45.807076 109.499684,45.807076 C109.776266,45.807076 110,45.8934766 110,46" id="Fill-156" fill="#203765" mask="url(#mask-4)"></path>
                <path d="M111,45.4998743 C111,45.7760744 110.776177,46 110.499904,46 C110.223823,46 110,45.7760744 110,45.4998743 C110,45.2236743 110.223823,45 110.499904,45 C110.776177,45 111,45.2236743 111,45.4998743" id="Fill-157" fill="#203765" mask="url(#mask-4)"></path>
                <path d="M111,46 C111,46.118661 110.7762,46.2149633 110.499858,46.2149633 C110.224084,46.2149633 110,46.118661 110,46 C110,45.8811793 110.224084,45.7850367 110.499858,45.7850367 C110.7762,45.7850367 111,45.8811793 111,46" id="Fill-158" fill="#203765" mask="url(#mask-4)"></path>
                <path d="M107.18572,46 C107.18572,46.0782556 107.102466,46.1416586 107,46.1416586 C106.897374,46.1416586 106.81428,46.0782556 106.81428,46 C106.81428,45.9217444 106.897374,45.8583414 107,45.8583414 C107.102466,45.8583414 107.18572,45.9217444 107.18572,46" id="Fill-159" fill="#203765" mask="url(#mask-4)"></path>
                <path d="M109,45 C109,45 108.441328,45.0039383 108,45.9809507 C108,45.9809507 108.732103,46.2205838 109,45" id="Fill-160" fill="#5F8AD4" mask="url(#mask-4)"></path>
                <path d="M114,45.8857355 C114,45.8857355 113.582428,44.9631838 113,45.0011399 C113,45.0011399 113.483707,46.4020632 114,45.8857355" id="Fill-161" fill="#5F8AD4" mask="url(#mask-4)"></path>
                <path d="M110,46.8562409 C110,46.8562409 109.57583,45.9137294 109,46.0064136 C109,46.0064136 109.496059,47.4513533 110,46.8562409" id="Fill-162" fill="#5F8AD4" mask="url(#mask-4)"></path>
                <path d="M113,47.803703 C113,47.803703 112.467784,47.7145875 112,48.1539367 C112,48.1539367 112.685155,48.3984454 113,47.803703" id="Fill-163" fill="#5F8AD4" mask="url(#mask-4)"></path>
                <path d="M107,45.8728755 C107,45.8728755 106.48655,45.7339319 106,46.0685144 C106,46.0685144 106.651867,46.3617333 107,45.8728755" id="Fill-164" fill="#5F8AD4" mask="url(#mask-4)"></path>
                <path d="M134,58.0980288 C130.560924,58.5905972 127.438859,58.9946358 125.249811,60.430015 C123.234444,61.7515007 122,63.5296907 122,65.4851019 C122,67.6584452 123.341413,69.9838078 125.95428,70.9645829 C128.150146,71.7886537 131.607077,73.47896 134,72.8707212 C137.001461,72.1078781 139.668705,72.2119169 141.761011,71.1178947 L140.790337,70.4124022 L134.012986,65.4851019 L144.929986,66.0849402 L145.952927,66.1408367 C145.98393,65.9248433 146,65.7057804 146,65.4851019 C146,63.3923725 144.586192,61.5030356 142.314685,60.1587711 C140.157937,58.8825196 137.219294,57.6369627 134,58.0980288" id="Fill-165" fill="#FFE5CC" mask="url(#mask-4)"></path>
                <path d="M144.950545,66.1665759 L134.009315,65.5690528 L140.801708,70.4771749 C140.127723,70.7789136 139.389968,71.0365582 138.60227,71.2427061 C137.20452,71.6084939 135.586827,71.35793 134.009315,71.8123888 C131.394879,72.5653676 128.982004,70.837652 127.047084,70.4004125 C124.962498,69.9293783 122.780141,67.4589831 123.017817,65.5690528 C123.264603,63.6057396 124.676831,61.3313539 127.20765,60.6633447 C129.109383,60.1612515 131.617914,59 134.185823,59 C136.270898,59 138.021338,60.0244633 139.704429,60.2269098 C142.880275,60.6091122 145,63.3051274 145,65.5690528 C145,65.7706947 144.983244,65.969279 144.950545,66.1665759" id="Fill-166" fill="#FF7643" mask="url(#mask-4)"></path>
                <path d="M127,64.5 C127,64.7759619 126.776143,65 126.500079,65 C126.224015,65 126,64.7759619 126,64.5 C126,64.2240381 126.224015,64 126.500079,64 C126.776143,64 127,64.2240381 127,64.5" id="Fill-167" fill="#203765" mask="url(#mask-4)"></path>
                <path d="M130,63.5 C130,63.7760762 129.776108,64 129.5,64 C129.223734,64 129,63.7760762 129,63.5 C129,63.2239238 129.223734,63 129.5,63 C129.776108,63 130,63.2239238 130,63.5" id="Fill-168" fill="#203765" mask="url(#mask-4)"></path>
                <path d="M128,62.5 C128,62.775992 127.776114,63 127.5,63 C127.223886,63 127,62.775992 127,62.5 C127,62.2237569 127.223886,62 127.5,62 C127.776114,62 128,62.2237569 128,62.5" id="Fill-169" fill="#203765" mask="url(#mask-4)"></path>
                <path d="M132,61.5001127 C132,61.7762001 131.776017,62 131.5,62 C131.223811,62 131,61.7762001 131,61.5001127 C131,61.2237999 131.223811,61 131.5,61 C131.776017,61 132,61.2237999 132,61.5001127" id="Fill-170" fill="#203765" mask="url(#mask-4)"></path>
                <path d="M133,64.5 C133,64.7761429 132.552157,65 131.999891,65 C131.447843,65 131,64.7761429 131,64.5 C131,64.2238571 131.447843,64 131.999891,64 C132.552157,64 133,64.2238571 133,64.5" id="Fill-171" fill="#203765" mask="url(#mask-4)"></path>
                <path d="M134,63.5 C134,63.7760762 133.776108,64 133.5,64 C133.223892,64 133,63.7760762 133,63.5 C133,63.2239238 133.223892,63 133.5,63 C133.776108,63 134,63.2239238 134,63.5" id="Fill-172" fill="#203765" mask="url(#mask-4)"></path>
                <path d="M137,63 C137,63.1065234 136.775949,63.192924 136.5,63.192924 C136.224051,63.192924 136,63.1065234 136,63 C136,62.8934766 136.224051,62.807076 136.5,62.807076 C136.775949,62.807076 137,62.8934766 137,63" id="Fill-173" fill="#203765" mask="url(#mask-4)"></path>
                <path d="M136,62 C136,62.1065234 135.77602,62.192924 135.499842,62.192924 C135.22398,62.192924 135,62.1065234 135,62 C135,61.8934766 135.22398,61.807076 135.499842,61.807076 C135.77602,61.807076 136,61.8934766 136,62" id="Fill-174" fill="#203765" mask="url(#mask-4)"></path>
                <path d="M133,67 C133,67.1065234 132.77602,67.192924 132.499842,67.192924 C132.22398,67.192924 132,67.1065234 132,67 C132,66.8934766 132.22398,66.807076 132.499842,66.807076 C132.77602,66.807076 133,66.8934766 133,67" id="Fill-175" fill="#203765" mask="url(#mask-4)"></path>
                <path d="M134,68 C134,68.1065234 133.775949,68.192924 133.5,68.192924 C133.223734,68.192924 133,68.1065234 133,68 C133,67.8934766 133.223734,67.807076 133.5,67.807076 C133.775949,67.807076 134,67.8934766 134,68" id="Fill-176" fill="#203765" mask="url(#mask-4)"></path>
                <path d="M130,66.5 C130,66.7761085 129.77605,67 129.50014,67 C129.22395,67 129,66.7761085 129,66.5 C129,66.2238915 129.22395,66 129.50014,66 C129.77605,66 130,66.2238915 130,66.5" id="Fill-177" fill="#203765" mask="url(#mask-4)"></path>
                <path d="M127,66.8658362 C127,66.8658362 126.492524,66.6770646 126,67.0571631 C126,67.0571631 126.64182,67.4372617 127,66.8658362" id="Fill-178" fill="#5F8AD4" mask="url(#mask-4)"></path>
                <path d="M130,63.1295211 C130,63.1295211 129.492325,62.6080355 129,63.6578427 C129,63.6578427 129.641669,64.7076499 130,63.1295211" id="Fill-179" fill="#5F8AD4" mask="url(#mask-4)"></path>
                <path d="M136,63 C136,63 135.441181,63.0037837 135,63.9810243 C135,63.9810243 135.732286,64.220237 136,63" id="Fill-180" fill="#5F8AD4" mask="url(#mask-4)"></path>
                <path d="M138,63.7137515 C138,63.7137515 137.552742,62.7368125 137,63.0688367 C137,63.0688367 137.536129,64.6251297 138,63.7137515" id="Fill-181" fill="#5F8AD4" mask="url(#mask-4)"></path>
                <path d="M134,63.99501 C134,63.99501 133.648304,63.2378438 133,63 C133,63 133.367858,64.0821147 134,63.99501" id="Fill-182" fill="#5F8AD4" mask="url(#mask-4)"></path>
                <path d="M133,65.0037126 C133,65.0037126 132.457283,64.8890617 132,65.9340145 C132,65.9340145 132.703937,66.3693388 133,65.0037126" id="Fill-183" fill="#5F8AD4" mask="url(#mask-4)"></path>
                <path d="M134,68.785946 C134,68.785946 133.562609,67.8160102 133,68.0311428 C133,68.0311428 133.518233,69.5477976 134,68.785946" id="Fill-184" fill="#5F8AD4" mask="url(#mask-4)"></path>
                <path d="M134,66.0006381 C134,66.0006381 133.450259,65.9416116 133,66.9589361 C133,66.9589361 133.716076,67.3027591 134,66.0006381" id="Fill-185" fill="#5F8AD4" mask="url(#mask-4)"></path>
                <path d="M132,63.8312224 C132,63.8312224 131.488606,63.6335073 131,64.0859524 C131,64.0859524 131.64907,64.4978323 132,63.8312224" id="Fill-186" fill="#5F8AD4" mask="url(#mask-4)"></path>
                <path d="M131,62.9045822 C131,62.9045822 130.587435,61.9985245 130,62 C130,62 130.47459,63.3667208 131,62.9045822" id="Fill-187" fill="#5F8AD4" mask="url(#mask-4)"></path>
                <path d="M127.644303,67.1609074 L127.644303,67.1609074 C127.127121,67.4504238 126.867531,68.0360784 127.06751,68.4624437 C127.218036,68.7834133 127.550891,68.7155407 127.926872,68.5387775 L128.118026,68.9460134 C128.144501,69.0021141 128.221762,69.017013 128.290031,68.9787541 L128.656688,68.7736647 C128.724791,68.7354058 128.759092,68.6581524 128.732617,68.6018678 L128.542961,68.1975748 C128.889636,67.9740917 129.104102,67.7415956 128.948414,67.4097738 C128.748269,66.9834084 128.161319,66.8713909 127.644303,67.1609074" id="Fill-188" fill="#FF7469" mask="url(#mask-4)"></path>
                <path d="M137.355734,61.0804545 L137.355734,61.0804545 C137.872942,61.2251939 138.132567,61.518057 137.932384,61.731274 C137.781838,61.8916944 137.449085,61.8577376 137.073026,61.7694048 L136.882035,61.9730327 C136.85548,62.0011232 136.778267,62.008456 136.710041,61.9893906 L136.343379,61.8867306 C136.275154,61.8676651 136.240632,61.829083 136.267187,61.8009925 L136.457157,61.5987184 C136.110309,61.4870334 135.896031,61.3707229 136.05148,61.2048875 C136.251663,60.9916705 136.83873,60.9357152 137.355734,61.0804545" id="Fill-189" fill="#FF7469" mask="url(#mask-4)"></path>
                <path d="M131.355762,66.0804545 L131.355762,66.0804545 C131.872947,66.2251939 132.132561,66.5179442 131.932387,66.7311612 C131.781847,66.8916944 131.448904,66.8577376 131.072862,66.769292 L130.882083,66.9730327 C130.855529,67.0011232 130.778115,67.008456 130.709892,66.9893906 L130.343246,66.8867306 C130.275023,66.8676651 130.240912,66.8289702 130.267261,66.8008797 L130.457019,66.5987184 C130.11039,66.4870334 129.895917,66.3707229 130.051563,66.2048875 C130.251737,65.9916705 130.838576,65.9357152 131.355762,66.0804545" id="Fill-190" fill="#FF7469" mask="url(#mask-4)"></path>
                <path d="M127.644183,63.0804569 L127.644183,63.0804569 C127.126975,63.2252006 126.867554,63.5180725 127.067533,63.731183 C127.218078,63.891721 127.551036,63.8577632 127.92689,63.769315 L128.117881,63.9730617 C128.144436,64.0010402 128.221854,64.0084861 128.289876,63.9894201 L128.656742,63.886757 C128.724763,63.8678039 128.75908,63.8291078 128.73273,63.8009036 L128.54276,63.5987363 C128.889608,63.4870479 129.10409,63.3708468 128.948437,63.2048936 C128.748254,62.9916703 128.161391,62.9357133 127.644183,63.0804569" id="Fill-191" fill="#FF7469" mask="url(#mask-4)"></path>
                <path d="M145.393781,65.2326284 L136.248357,64.7140699 L135,64 L135,64.6433427 L142.137877,70 C144.292883,68.8374514 145.738009,67.1592577 146,65.26694 L146,64.6235973 L145.393781,65.2326284 Z" id="Fill-192" fill="#FFE5CC" mask="url(#mask-4)"></path>
                <path d="M146,63.6989095 C145.738163,65.8181132 144.292544,67.6978824 142.137664,69 L138.902509,66.2806694 L138.229326,65.7149805 L138.228696,65.7149805 L135,63 L146,63.6989095 Z" id="Fill-193" fill="#FF7E58" mask="url(#mask-4)"></path>
                <path d="M139,64.4998965 C139,64.7759156 138.775985,65 138.499921,65 C138.223857,65 138,64.7759156 138,64.4998965 C138,64.2238775 138.223857,64 138.499921,64 C138.775985,64 139,64.2238775 139,64.4998965" id="Fill-194" fill="#203765" mask="url(#mask-4)"></path>
                <path d="M140,66.5252613 C140,66.7356272 139.879512,66.9155052 139.704302,67 L139,66.3203397 C139.078952,66.1313153 139.264381,66 139.479644,66 C139.767101,66 140,66.2356272 140,66.5252613" id="Fill-195" fill="#203765" mask="url(#mask-4)"></path>
                <path d="M142,66 C142,66.1065234 141.776266,66.192924 141.500316,66.192924 C141.223734,66.192924 141,66.1065234 141,66 C141,65.8934766 141.223734,65.807076 141.500316,65.807076 C141.776266,65.807076 142,65.8934766 142,66" id="Fill-196" fill="#203765" mask="url(#mask-4)"></path>
                <path d="M143,65 C143,65.1065234 142.77602,65.192924 142.500158,65.192924 C142.22398,65.192924 142,65.1065234 142,65 C142,64.8934766 142.22398,64.807076 142.500158,64.807076 C142.77602,64.807076 143,64.8934766 143,65" id="Fill-197" fill="#203765" mask="url(#mask-4)"></path>
                <path d="M140,65 C140,65.1065234 139.776266,65.192924 139.5,65.192924 C139.223734,65.192924 139,65.1065234 139,65 C139,64.8934766 139.223734,64.807076 139.5,64.807076 C139.776266,64.807076 140,64.8934766 140,65" id="Fill-198" fill="#203765" mask="url(#mask-4)"></path>
                <path d="M142,64.5 C142,64.7761307 141.776369,65 141.499904,65 C141.223823,65 141,64.7761307 141,64.5 C141,64.2238693 141.223823,64 141.499904,64 C141.776369,64 142,64.2238693 142,64.5" id="Fill-199" fill="#203765" mask="url(#mask-4)"></path>
                <path d="M141,66 C141,66.1188207 140.7762,66.2149633 140.500142,66.2149633 C140.224084,66.2149633 140,66.1188207 140,66 C140,65.881339 140.224084,65.7850367 140.500142,65.7850367 C140.7762,65.7850367 141,65.881339 141,66" id="Fill-200" fill="#203765" mask="url(#mask-4)"></path>
                <path d="M137.1858,64 C137.1858,64.0782556 137.102546,64.1416586 137.00008,64.1416586 C136.897294,64.1416586 136.8142,64.0782556 136.8142,64 C136.8142,63.9217444 136.897294,63.8583414 137.00008,63.8583414 C137.102546,63.8583414 137.1858,63.9217444 137.1858,64" id="Fill-201" fill="#203765" mask="url(#mask-4)"></path>
                <path d="M140,65 C140,65 139.441328,65.0039383 139,65.9809507 C139,65.9809507 139.732103,66.2205838 140,65" id="Fill-202" fill="#5F8AD4" mask="url(#mask-4)"></path>
                <path d="M144,65.8857355 C144,65.8857355 143.582428,64.9631838 143,65.0011399 C143,65.0011399 143.483466,66.4020632 144,65.8857355" id="Fill-203" fill="#5F8AD4" mask="url(#mask-4)"></path>
                <path d="M141,66.8562409 C141,66.8562409 140.575591,65.9137294 140,66.0064136 C140,66.0064136 140.49582,67.4513533 141,66.8562409" id="Fill-204" fill="#5F8AD4" mask="url(#mask-4)"></path>
                <path d="M143,66.803703 C143,66.803703 142.467784,66.7145875 142,67.1539367 C142,67.1539367 142.685155,67.3984454 143,66.803703" id="Fill-205" fill="#5F8AD4" mask="url(#mask-4)"></path>
                <path d="M137,63.8727742 C137,63.8727742 136.486811,63.7339903 136,64.0685728 C136,64.0685728 136.652128,64.3617917 137,63.8727742" id="Fill-206" fill="#5F8AD4" mask="url(#mask-4)"></path>
                <path d="M102.999919,78.0980288 C99.5608197,78.5904357 96.4387339,78.9944743 94.2498326,80.4298535 C92.2344527,81.7515009 91,83.5296909 91,85.4851022 C91,87.6584456 92.3414223,89.9839698 94.9543066,90.9644218 C97.1500254,91.7886542 100.607142,93.4789606 102.999919,92.8707217 C106.001562,92.1078786 108.668662,92.2119174 110.760982,91.1178951 L109.790464,90.4124026 L103.012905,85.4851022 L113.929979,86.0849404 L114.952927,86.140837 C114.984093,85.9248436 115,85.7056191 115,85.4851022 C115,83.3925342 113.586345,81.5030357 111.314822,80.1587712 C109.157898,78.8825196 106.219397,77.6369627 102.999919,78.0980288" id="Fill-207" fill="#FFE5CC" mask="url(#mask-4)"></path>
                <path d="M113.950382,86.16651 L103.009153,85.5689789 L109.801708,90.4773269 C109.127561,90.7789087 108.389805,91.0365568 107.602107,91.2428683 C106.20452,91.6085 104.586827,91.3579329 103.009153,91.8123976 C100.394717,92.5653865 97.9820043,90.837487 96.0469215,90.4005636 C93.9624981,89.9295231 91.7801412,87.4589343 92.0178172,85.5689789 C92.2644406,83.6058007 93.6766687,81.3313848 96.2076497,80.6633667 C98.109383,80.1612669 100.617751,79 103.185823,79 C105.270735,79 107.021338,80.0243159 108.704266,80.2269261 C111.880112,80.6091335 114,83.3050235 114,85.5689789 C114,85.7706235 113.983081,85.9693714 113.950382,86.16651" id="Fill-208" fill="#FF7643" mask="url(#mask-4)"></path>
                <path d="M98,84.5001035 C98,84.7761225 97.7762658,85 97.5,85 C97.2238924,85 97,84.7761225 97,84.5001035 C97,84.2238775 97.2238924,84 97.5,84 C97.7762658,84 98,84.2238775 98,84.5001035" id="Fill-209" fill="#203765" mask="url(#mask-4)"></path>
                <path d="M101,82.5 C101,82.7760762 100.775985,83 100.499921,83 C100.223857,83 100,82.7760762 100,82.5 C100,82.2239238 100.223857,82 100.499921,82 C100.775985,82 101,82.2239238 101,82.5" id="Fill-210" fill="#203765" mask="url(#mask-4)"></path>
                <path d="M99,81.5 C99,81.7762431 98.7761567,82 98.500096,82 C98.2238433,82 98,81.7762431 98,81.5 C98,81.2237569 98.2238433,81 98.500096,81 C98.7761567,81 99,81.2237569 99,81.5" id="Fill-211" fill="#203765" mask="url(#mask-4)"></path>
                <path d="M103,81.5002253 C103,81.7762506 102.776189,82 102.5,82 C102.223983,82 102,81.7762506 102,81.5002253 C102,81.2239748 102.223983,81 102.5,81 C102.776189,81 103,81.2239748 103,81.5002253" id="Fill-212" fill="#203765" mask="url(#mask-4)"></path>
                <path d="M103,84.5000714 C103,84.7762538 102.552108,85 102,85 C101.447673,85 101,84.7762538 101,84.5000714 C101,84.2237462 101.447673,84 102,84 C102.552108,84 103,84.2237462 103,84.5000714" id="Fill-213" fill="#203765" mask="url(#mask-4)"></path>
                <path d="M105,82.5 C105,82.7760762 104.775985,83 104.499921,83 C104.223857,83 104,82.7760762 104,82.5 C104,82.2239238 104.223857,82 104.499921,82 C104.775985,82 105,82.2239238 105,82.5" id="Fill-214" fill="#203765" mask="url(#mask-4)"></path>
                <path d="M107,83 C107,83.1065234 106.775949,83.192924 106.5,83.192924 C106.223734,83.192924 106,83.1065234 106,83 C106,82.8933169 106.223734,82.807076 106.5,82.807076 C106.775949,82.807076 107,82.8933169 107,83" id="Fill-215" fill="#203765" mask="url(#mask-4)"></path>
                <path d="M106,82 C106,82.1065234 105.77602,82.192924 105.500158,82.192924 C105.22398,82.192924 105,82.1065234 105,82 C105,81.8934766 105.22398,81.807076 105.500158,81.807076 C105.77602,81.807076 106,81.8934766 106,82" id="Fill-216" fill="#203765" mask="url(#mask-4)"></path>
                <path d="M103,88 C103,88.1065234 102.776266,88.192924 102.5,88.192924 C102.223734,88.192924 102,88.1065234 102,88 C102,87.8934766 102.223734,87.807076 102.5,87.807076 C102.776266,87.807076 103,87.8934766 103,88" id="Fill-217" fill="#203765" mask="url(#mask-4)"></path>
                <path d="M105,89 C105,89.1066831 104.776266,89.192924 104.5,89.192924 C104.224051,89.192924 104,89.1066831 104,89 C104,88.8934766 104.224051,88.807076 104.5,88.807076 C104.776266,88.807076 105,88.8934766 105,89" id="Fill-218" fill="#203765" mask="url(#mask-4)"></path>
                <path d="M101,86.5 C101,86.7761085 100.776082,87 100.50007,87 C100.223918,87 100,86.7761085 100,86.5 C100,86.2237083 100.223918,86 100.50007,86 C100.776082,86 101,86.2237083 101,86.5" id="Fill-219" fill="#203765" mask="url(#mask-4)"></path>
                <path d="M98,86.8659074 C98,86.8659074 97.4925244,86.6769761 97,87.0570747 C97,87.0570747 97.6420368,87.4373329 98,86.8659074" id="Fill-220" fill="#5F8AD4" mask="url(#mask-4)"></path>
                <path d="M100,84.1295211 C100,84.1295211 99.4924848,83.6080355 99,84.6578427 C99,84.6578427 99.6418292,85.7076499 100,84.1295211" id="Fill-221" fill="#5F8AD4" mask="url(#mask-4)"></path>
                <path d="M106,83 C106,83 105.441277,83.0037843 105,83.9809804 C105,83.9809804 105.732161,84.2204439 106,83" id="Fill-222" fill="#5F8AD4" mask="url(#mask-4)"></path>
                <path d="M108,83.7137515 C108,83.7137515 107.552814,82.7368125 107,83.0688367 C107,83.0688367 107.536043,84.6251297 108,83.7137515" id="Fill-223" fill="#5F8AD4" mask="url(#mask-4)"></path>
                <path d="M105,84.9949908 C105,84.9949908 104.648304,84.2378787 104,84 C104,84 104.367858,85.0822736 105,84.9949908" id="Fill-224" fill="#5F8AD4" mask="url(#mask-4)"></path>
                <path d="M104,86.0037357 C104,86.0037357 103.457193,85.8887965 103,86.9340161 C103,86.9340161 103.703995,87.3693302 104,86.0037357" id="Fill-225" fill="#5F8AD4" mask="url(#mask-4)"></path>
                <path d="M104,89.786019 C104,89.786019 103.562801,88.8162689 103,89.031054 C103,89.031054 103.518233,90.5477248 104,89.786019" id="Fill-226" fill="#5F8AD4" mask="url(#mask-4)"></path>
                <path d="M105,87.0006386 C105,87.0006386 104.450259,86.9416004 104,87.9588529 C104,87.9588529 104.715877,88.3030157 105,87.0006386" id="Fill-227" fill="#5F8AD4" mask="url(#mask-4)"></path>
                <path d="M103,82.8312502 C103,82.8312502 102.488416,82.6333754 102,83.0859802 C102,83.0859802 102.64907,83.4978601 103,82.8312502" id="Fill-228" fill="#5F8AD4" mask="url(#mask-4)"></path>
                <path d="M102,81.9045822 C102,81.9045822 101.587518,80.9985245 101,81 C101,81 101.474495,82.3667208 102,81.9045822" id="Fill-229" fill="#5F8AD4" mask="url(#mask-4)"></path>
                <path d="M98.6442055,87.1609034 L98.6442055,87.1609034 C98.1269862,87.4504128 97.8675439,88.0360531 98.0675376,88.4624081 C98.218074,88.7833699 98.5509528,88.715315 98.9267944,88.53874 L99.1181289,88.945966 C99.1444395,89.0022493 99.2218725,89.0169639 99.2899802,88.978706 L99.6568296,88.7736215 C99.7249374,88.7353636 99.7590745,88.658112 99.7327639,88.6018288 L99.5429281,88.1973617 C99.8896282,87.974068 100.104109,87.7415776 99.9484107,87.4097638 C99.748417,86.9834088 99.1614248,86.8713941 98.6442055,87.1609034" id="Fill-230" fill="#FF7469" mask="url(#mask-4)"></path>
                <path d="M107.355616,81.0803698 L107.355616,81.0803698 C107.873028,81.2251104 108.132449,81.517976 107.93247,81.7311947 C107.78172,81.8916164 107.448966,81.8577722 107.073112,81.7693259 L106.881917,81.9729554 C106.855566,82.0010462 106.778148,82.0084919 106.709923,81.9894263 L106.343261,81.8866526 C106.275035,81.8676998 106.240922,81.8291174 106.267273,81.8009139 L106.457038,81.5987509 C106.110394,81.4869521 105.895912,81.3707535 106.051565,81.2049167 C106.251748,80.9916979 106.838612,80.9357421 107.355616,81.0803698" id="Fill-231" fill="#FF7469" mask="url(#mask-4)"></path>
                <path d="M102.355679,86.0804574 L102.355679,86.0804574 C102.873115,86.225202 103.132549,86.5179627 102.932356,86.7313002 C102.781803,86.8916135 102.449034,86.8577683 102.072958,86.7692067 L101.881958,86.9729547 C101.855606,87.0010462 101.778185,87.0084921 101.709956,86.989426 L101.343277,86.8866495 C101.275048,86.8676962 101.240933,86.8291127 101.267285,86.8009084 L101.45706,86.5987399 C101.1104,86.4870508 100.895908,86.3707362 101.051567,86.2048949 C101.251556,85.9916702 101.838447,85.9357129 102.355679,86.0804574" id="Fill-232" fill="#FF7469" mask="url(#mask-4)"></path>
                <path d="M98.644266,83.0804574 L98.644266,83.0804574 C98.1270581,83.225202 97.8674328,83.5180755 98.067616,83.7313002 C98.2181619,83.8916135 98.5509153,83.8577683 98.9269736,83.7693196 L99.1177604,83.9729547 C99.1443153,84.0010462 99.221733,84.0084921 99.2897545,83.989426 L99.656825,83.8866495 C99.7248464,83.867809 99.7591635,83.8291127 99.7326086,83.8010212 L99.5428431,83.5987399 C99.8896911,83.4870508 100.103969,83.3707362 99.9485204,83.2048949 C99.7483373,82.9916702 99.1614738,82.9357129 98.644266,83.0804574" id="Fill-233" fill="#FF7469" mask="url(#mask-4)"></path>
                <path d="M116.39393,85.2326284 L107.248217,84.7140699 L106,84 L106,84.6433427 L113.137979,90 C115.293017,88.8374514 116.738163,87.1592577 117,85.26694 L117,84.6235973 L116.39393,85.2326284 Z" id="Fill-234" fill="#FFE5CC" mask="url(#mask-4)"></path>
                <path d="M117,84.6989095 C116.738159,86.8181132 115.292677,88.6978824 113.137609,90 L109.902565,87.2804882 L109.229215,86.7147993 L109.228585,86.7147993 L106,84 L117,84.6989095 Z" id="Fill-235" fill="#FF7E58" mask="url(#mask-4)"></path>
                <path d="M109,85.5 C109,85.7760762 108.776108,86 108.5,86 C108.223734,86 108,85.7760762 108,85.5 C108,85.2239238 108.223734,85 108.5,85 C108.776108,85 109,85.2239238 109,85.5" id="Fill-236" fill="#203765" mask="url(#mask-4)"></path>
                <path d="M109,86.5251579 C109,86.7357874 108.879532,86.9154868 108.704351,87 L108,86.3201917 C108.078939,86.1311261 108.264338,86 108.479565,86 C108.766974,86 109,86.2356785 109,86.5251579" id="Fill-237" fill="#203765" mask="url(#mask-4)"></path>
                <path d="M111,87 C111,87.1065234 110.775949,87.192924 110.5,87.192924 C110.223734,87.192924 110,87.1065234 110,87 C110,86.8934766 110.223734,86.807076 110.5,86.807076 C110.775949,86.807076 111,86.8934766 111,87" id="Fill-238" fill="#203765" mask="url(#mask-4)"></path>
                <path d="M113,86 C113,86.1066831 112.776266,86.192924 112.5,86.192924 C112.224051,86.192924 112,86.1066831 112,86 C112,85.8934766 112.224051,85.807076 112.5,85.807076 C112.776266,85.807076 113,85.8934766 113,86" id="Fill-239" fill="#203765" mask="url(#mask-4)"></path>
                <path d="M110,85 C110,85.1065234 109.776266,85.192924 109.499684,85.192924 C109.223734,85.192924 109,85.1065234 109,85 C109,84.8934766 109.223734,84.807076 109.499684,84.807076 C109.776266,84.807076 110,84.8934766 110,85" id="Fill-240" fill="#203765" mask="url(#mask-4)"></path>
                <path d="M111,85.5001257 C111,85.7763257 110.776177,86 110.499904,86 C110.223823,86 110,85.7763257 110,85.5001257 C110,85.2236743 110.223823,85 110.499904,85 C110.776177,85 111,85.2236743 111,85.5001257" id="Fill-241" fill="#203765" mask="url(#mask-4)"></path>
                <path d="M111,85.9999201 C111,86.1185812 110.7762,86.2150432 110.499858,86.2150432 C110.224084,86.2150432 110,86.1185812 110,85.9999201 C110,85.8812591 110.224084,85.7849568 110.499858,85.7849568 C110.7762,85.7849568 111,85.8812591 111,85.9999201" id="Fill-242" fill="#203765" mask="url(#mask-4)"></path>
                <path d="M107.18572,84.9999201 C107.18572,85.0781757 107.102466,85.1417384 107,85.1417384 C106.897374,85.1417384 106.81428,85.0781757 106.81428,84.9999201 C106.81428,84.9216646 106.897374,84.8582616 107,84.8582616 C107.102466,84.8582616 107.18572,84.9216646 107.18572,84.9999201" id="Fill-243" fill="#203765" mask="url(#mask-4)"></path>
                <path d="M109,85 C109,85 108.441328,85.0039385 108,85.9810016 C108,85.9810016 108.732103,86.2203441 109,85" id="Fill-244" fill="#5F8AD4" mask="url(#mask-4)"></path>
                <path d="M114,85.8857355 C114,85.8857355 113.582428,84.9631838 113,85.0011399 C113,85.0011399 113.483707,86.4020632 114,85.8857355" id="Fill-245" fill="#5F8AD4" mask="url(#mask-4)"></path>
                <path d="M110,86.8562409 C110,86.8562409 109.57583,85.9137294 109,86.0064136 C109,86.0064136 109.496059,87.4513533 110,86.8562409" id="Fill-246" fill="#5F8AD4" mask="url(#mask-4)"></path>
                <path d="M113,87.8037507 C113,87.8037507 112.467784,87.7146351 112,88.1538246 C112,88.1538246 112.685155,88.3984931 113,87.8037507" id="Fill-247" fill="#5F8AD4" mask="url(#mask-4)"></path>
                <path d="M107,84.8728066 C107,84.8728066 106.48655,84.7340227 106,85.0686052 C106,85.0686052 106.651867,85.3616644 107,84.8728066" id="Fill-248" fill="#5F8AD4" mask="url(#mask-4)"></path>
                <path d="M153.322605,132 C153.322605,132 151.828434,132.750021 151.412368,133.690182 C150.996141,134.630172 149.316962,134.305287 148.56785,134.903911 C147.818575,135.502365 147.048871,137.294667 145,137.272238 L145,137.66543 L145.826294,138 C145.826294,138 151.396965,136.374388 152.161156,135.740251 C152.92551,135.105774 154.74381,133.461131 154.74381,133.461131 L155,132.048597 L153.322605,132 Z" id="Fill-249" fill="#FFE5CC" mask="url(#mask-4)"></path>
                <path d="M121.358553,169 L105.641447,169 C105.288753,169 105,168.774893 105,168.499939 C105,168.224985 105.288753,168 105.641447,168 L121.358553,168 C121.711247,168 122,168.224985 122,168.499939 C122,168.774893 121.711247,169 121.358553,169" id="Fill-250" fill="#D3EAFF" mask="url(#mask-4)"></path>
                <path d="M121.358553,166 L105.641447,166 C105.288753,166 105,165.775043 105,165.500122 C105,165.22508 105.288753,165 105.641447,165 L121.358553,165 C121.711247,165 122,165.22508 122,165.500122 C122,165.775043 121.711247,166 121.358553,166" id="Fill-251" fill="#D3EAFF" mask="url(#mask-4)"></path>
                <path d="M112.286674,63 L93.7133263,63 C93.3210848,63 93,62.5498263 93,61.9998879 C93,61.4499496 93.3210848,61 93.7133263,61 L112.286674,61 C112.679075,61 113,61.4499496 113,61.9998879 C113,62.5498263 112.679075,63 112.286674,63" id="Fill-252" fill="#FF7469" mask="url(#mask-4)"></path>
                <path d="M112.286674,65 L93.7133263,65 C93.3210848,65 93,64.5501009 93,64 C93,63.4501233 93.3210848,63 93.7133263,63 L112.286674,63 C112.679075,63 113,63.4501233 113,64 C113,64.5501009 112.679075,65 112.286674,65" id="Fill-253" fill="#FF7469" mask="url(#mask-4)"></path>
                <path d="M112.286674,69 L93.7133263,69 C93.3210848,69 93,68.5501009 93,68 C93,67.4501233 93.3210848,67 93.7133263,67 L112.286674,67 C112.679075,67 113,67.4501233 113,68 C113,68.5501009 112.679075,69 112.286674,69" id="Fill-254" fill="#FF7469" mask="url(#mask-4)"></path>
                <path d="M144.286674,43 L125.713326,43 C125.321085,43 125,42.5500504 125,42.0001121 C125,41.4497254 125.321085,41 125.713326,41 L144.286674,41 C144.679075,41 145,41.4497254 145,42.0001121 C145,42.5500504 144.679075,43 144.286674,43" id="Fill-255" fill="#FF7469" mask="url(#mask-4)"></path>
                <path d="M144.286674,46 L125.713326,46 C125.321085,46 125,45.5501009 125,45 C125,44.4501233 125.321085,44 125.713326,44 L144.286674,44 C144.679075,44 145,44.4501233 145,45 C145,45.5501009 144.679075,46 144.286674,46" id="Fill-256" fill="#FF7469" mask="url(#mask-4)"></path>
                <path d="M144.286674,48 L125.713326,48 C125.321085,48 125,47.5500504 125,47.0001121 C125,46.4499496 125.321085,46 125.713326,46 L144.286674,46 C144.679075,46 145,46.4499496 145,47.0001121 C145,47.5500504 144.679075,48 144.286674,48" id="Fill-257" fill="#FF7469" mask="url(#mask-4)"></path>
                <path d="M144.286674,83 L125.713326,83 C125.321085,83 125,82.5500504 125,82.0001121 C125,81.4501737 125.321085,81 125.713326,81 L144.286674,81 C144.679075,81 145,81.4501737 145,82.0001121 C145,82.5500504 144.679075,83 144.286674,83" id="Fill-258" fill="#FF7469" mask="url(#mask-4)"></path>
                <path d="M144.286674,86 L125.713326,86 C125.321085,86 125,85.5500504 125,85.0001121 C125,84.4499496 125.321085,84 125.713326,84 L144.286674,84 C144.679075,84 145,84.4499496 145,85.0001121 C145,85.5500504 144.679075,86 144.286674,86" id="Fill-259" fill="#FF7469" mask="url(#mask-4)"></path>
                <path d="M144.286674,89 L125.713326,89 C125.321085,89 125,88.5498767 125,88 C125,87.4498991 125.321085,87 125.713326,87 L144.286674,87 C144.679075,87 145,87.4498991 145,88 C145,88.5498767 144.679075,89 144.286674,89" id="Fill-260" fill="#FF7469" mask="url(#mask-4)"></path>
                <path d="M195.572431,85 L177.427406,85 C174.442251,85 172,82.7498084 172,79.9999249 C172,77.2500413 174.442251,75 177.427406,75 L195.572431,75 C198.557586,75 201,77.2500413 201,79.9999249 C201,82.7498084 198.557586,85 195.572431,85" id="Fill-261" fill="#FF7469" mask="url(#mask-4)"></path>
                <path d="M183,79.2549563 C183,79.2549563 186.475643,84.1790717 186.465275,83.994963 C186.454578,83.8108543 190,77 190,77 L185.907697,81.0150684 L183,79.2549563 Z" id="Fill-262" fill="#FFFFFF" mask="url(#mask-4)"></path>
                <polygon id="Fill-263" fill="#FFFBF8" mask="url(#mask-4)" points="130 143.290717 118.562144 146 115 144.506451 126.090662 142"></polygon>
            </g>
        </g>
    </g>
</svg>