<?xml version="1.0" encoding="UTF-8"?>
<svg width="152px" height="84px" viewBox="0 0 152 84" version="1.1" xmlns="http://www.w3.org/2000/svg" xmlns:xlink="http://www.w3.org/1999/xlink">
    <title>Restora.tech SVG</title>
    <g id="Page-1" stroke="none" stroke-width="1" fill="none" fill-rule="evenodd">
        <g id="login" transform="translate(-132.000000, -70.000000)" fill-rule="nonzero">
            <g id="Restora.tech-SVG" transform="translate(132.000000, 70.000000)">
                <g id="gzulUT.tif" transform="translate(47.678571, 0.000000)">
                    <path d="M59.3410714,38.3089286 L2.39450823,38.3089286 C2.37396571,31.6478676 4.73578187,25.1989504 9.05357143,20.1267857 C13.4303571,14.9089286 19.1142857,11.8178571 25.8535714,10.35 C23.8553571,6.84107143 24.0964286,3.65892857 27.3857143,1.1625 C29.5443678,-0.43226792 32.5041509,-0.38176717 34.6071429,1.28571429 C37.6982143,3.80357143 38.0035714,6.91071429 36.0160714,10.2964286 C53.5714286,14.1857143 59.6357143,28.9285714 59.3410714,38.3089286 Z M30.9053571,8.73214286 C32.1733994,8.72989928 33.2113489,7.72275645 33.2517857,6.45535714 C33.199671,5.20963059 32.1783163,4.22446739 30.9315207,4.21727091 C29.6847251,4.21015286 28.6521274,5.18352529 28.5857143,6.42857143 C28.594547,7.70339408 29.6305039,8.73214286 30.9053571,8.73214286 L30.9053571,8.73214286 Z" id="Shape" fill="#FFB400"></path>
                    <path d="M30.9267857,42.1446429 C40.0017857,42.1446429 49.075,42.1446429 58.1464286,42.1446429 C60.2464286,42.1446429 61.6071429,43.5375 61.4839286,45.5035714 C61.3880274,47.0329537 60.1734594,48.2543965 58.6446429,48.3589286 C58.425,48.3589286 58.2053571,48.3589286 57.9857143,48.3589286 L3.87857143,48.3589286 C1.66071429,48.3589286 0.278571429,47.0464286 0.375,45.0535714 C0.432698149,43.4765501 1.69630221,42.2106104 3.27321429,42.15 C4.59107143,42.1017857 5.91428571,42.15 7.2375,42.15 L30.9267857,42.1446429 Z" id="Path" fill="#F77C00"></path>
                </g>
                <text id="Restora.tech" fill="#420502" font-family="Lobster-Regular, Lobster" font-size="31.3339286" font-weight="normal">
                    <tspan x="0" y="83.1482143">Restora.tech</tspan>
                </text>
            </g>
        </g>
    </g>
</svg>