<svg id="Layer_1" data-name="Layer 1" xmlns="http://www.w3.org/2000/svg"
    viewBox="0 0 269.53 155.94">
    <defs>
        <style>.cls-1{fill:#feb403;}.cls-2{fill:#f6810a;}.cls-3{fill:#420502;}</style>
    </defs>
    <path class="cls-1"
        d="M127.75,33.38c-2-6.56-1.5-9.31,2.23-12.11a7.73,7.73,0,0,1,9.37-.21c3.79,2.61,4.44,5.5,2.64,12.18,2.26.78,4.6,1.42,6.8,2.37Q170,44.75,172.67,67.73c.27,2.39-.52,3-2.9,3-23.32-.08-46.65,0-70,0-3.16,0-3.22-.07-3-3.1a38,38,0,0,1,28-33.36C125.75,34,126.68,33.7,127.75,33.38Zm6.68-2.19c2,.06,3.6-1.34,3.49-3a3.08,3.08,0,0,0-6.16,0A2.83,2.83,0,0,0,134.43,31.19Z" />
    <path class="cls-2"
        d="M134.81,84.22q-17.31,0-34.61,0c-4.11,0-6.26-1.51-6.19-4.3s2.13-4.19,6.3-4.19q34.48,0,69,0a12.16,12.16,0,0,1,3.84.57,3.48,3.48,0,0,1,2.38,3.85,3.63,3.63,0,0,1-2.71,3.66,10.76,10.76,0,0,1-2.89.37Q152.36,84.24,134.81,84.22Z" />
    <path class="cls-3"
        d="M118.36,118.93c-1.34.38-2.52.66-3.66,1.06-.25.09-.42.6-.5.94-.4,1.72-.63,3.47-1.13,5.15a14.14,14.14,0,0,1-5,7.5,9.28,9.28,0,0,1-7.52,2A16.69,16.69,0,0,1,98.1,135a5.86,5.86,0,0,1-3.65-3.37,3.1,3.1,0,0,0-.31-.52s-.08-.05-.2-.11l-.6.82c-1.67,2.43-6,4.36-8.82,3.95s-4.33-2.12-4.58-5.07c-.06-.6,0-1.21,0-1.88-.17,0-.28,0-.35.08-2.38,1.77-4.68,3.69-7.18,5.27a10.67,10.67,0,0,1-8.68,1.4A6.12,6.12,0,0,1,59,131.2a2.36,2.36,0,0,0-.12-.28l-.2-.08c-.59.51-1.22,1.09-1.89,1.62a13.83,13.83,0,0,1-10,3.3,10.86,10.86,0,0,1-3.27-.91,6,6,0,0,1-3.65-5.41,21.25,21.25,0,0,1,6-17.39,10.32,10.32,0,0,1,9.89-2.77,4.43,4.43,0,0,1,3.64,4.79,9.77,9.77,0,0,1-2.87,6.73,12.32,12.32,0,0,1-7.8,4c-1.22.13-1.39.3-1.39,1.53a16,16,0,0,0,.19,2.59,2.86,2.86,0,0,0,3.06,2.61,10,10,0,0,0,7.35-2.85,14.78,14.78,0,0,0,1.51-2.28c.42-.59.94-1.1,1.41-1.65a7.71,7.71,0,0,0,1-1.31,86.87,86.87,0,0,0,5.66-13.86.88.88,0,0,1,.85-.71c2.12-.24,4.25-.49,6.37-.8.59-.08.76,0,.78.64q.48,9.88,1,19.78s0,.09.1.24a6.26,6.26,0,0,0,.77-.41c.7-.46,1.37-1,2.08-1.42a2.45,2.45,0,0,0,1.11-1.74c.6-3,1.23-6.09,1.86-9.14.24-1.14.52-2.28.77-3.43.06-.29.08-.58.13-.9l-.37-.08c-.38-.09-1.06-.15-1.08-.28a3.71,3.71,0,0,1,.23-1.54c0-.15.52-.28.76-.23.67.14.93-.16,1.06-.75.41-1.92.88-3.83,1.23-5.76.12-.72.52-.83,1.08-.89l6.66-.75a1.67,1.67,0,0,1,0,.43c-.5,2.29-1,4.59-1.52,6.87-.15.62.08.8.62.81l1.45,0c.47,0,.86.1.79.66s.14,1.23-.7,1.31a13.39,13.39,0,0,1-1.9,0,.86.86,0,0,0-1,.8c-1.08,5.25-2.18,10.49-3.24,15.73a3.86,3.86,0,0,0,.07,1.51,1.41,1.41,0,0,0,1.46,1.19,4.25,4.25,0,0,0,4.61-3.91,29.55,29.55,0,0,1,1.63-7.28,17.69,17.69,0,0,1,5.72-8.25,10.44,10.44,0,0,1,8.21-2.12c3,.47,4.71,2.64,5.11,5.58.09.71.19,1.42.27,2.12,0,.44.27.64.71.6h.23c2.92-.13,3.29-.42,4-3.23.31-1.34.57-2.69.83-4,.1-.55.31-.76.91-.74,1.89.06,3.78,0,5.66,0,1,0,1.06.12.85,1.09-.1.49-.24,1-.36,1.48,0,0,0,.09.07.27a6.73,6.73,0,0,0,.76-.38c1-.63,1.92-1.36,3-1.89a4.06,4.06,0,0,1,5.05.69,4.35,4.35,0,0,1,.42,4.61,3.78,3.78,0,0,1-3.75,1.86,1.45,1.45,0,0,1-.91-.68,16,16,0,0,1-.84-2,1,1,0,0,0-1.23-.69,4.52,4.52,0,0,0-3.7,3.65c-1.2,5.84-2.42,11.68-3.62,17.52a.66.66,0,0,1-.78.62h-6.2c-.41,0-.7,0-.58-.59.87-4,1.71-7.93,2.56-11.89C117.75,121.78,118,120.45,118.36,118.93Zm-17.07,8.12a24.27,24.27,0,0,0,.33,2.42A2,2,0,0,0,103.7,131a3.44,3.44,0,0,0,2.68-1.26,13.19,13.19,0,0,0,1.84-3c.72-2,1.18-4,1.74-6a.67.67,0,0,0-.37-.88,2,2,0,0,1-.68-.69,3.63,3.63,0,0,1,.68-3.47c.28-.26.64-.61.66-.94a2.13,2.13,0,0,0-3.61-1.89,12,12,0,0,0-2,2.32A25.25,25.25,0,0,0,101.29,127.05ZM68.36,115.14l-.34-.06-4.15,9.41a2.12,2.12,0,0,1,.65,3.12c-.64,1.24-1.45,1.46-3.21.89a3.87,3.87,0,0,0,1.39,3,5.36,5.36,0,0,0,4.7-.67,4.41,4.41,0,0,0,1.6-3.94c-.15-2.93-.44-5.85-.63-8.77C68.31,117.11,68.36,116.13,68.36,115.14Zm-13-1.33a2.82,2.82,0,0,0,0-.43c-.25-1.44-1.19-1.94-2.4-1.18a5.19,5.19,0,0,0-1.67,1.52,22.61,22.61,0,0,0-3.15,7.57c-.22,1.14-.06,1.31,1.08,1l.22-.08A9.08,9.08,0,0,0,55.38,113.81Z" />
    <path class="cls-3"
        d="M244.85,99.15c-.92,4.29-1.82,8.46-2.72,12.62l.15.09c.59-.43,1.16-.89,1.77-1.29a7,7,0,0,1,6.56-.81,5.54,5.54,0,0,1,3.26,6.35c-.55,3.29-1.32,6.54-2,9.81-.16.78-.28,1.56-.37,2.34a2.18,2.18,0,0,0,1,2.33,2.64,2.64,0,0,0,2.75-.29,5.59,5.59,0,0,0,2.19-3.05,1.72,1.72,0,0,1,2.13-1c.16.07.25.59.16.81a44.52,44.52,0,0,1-1.89,4.16,8.6,8.6,0,0,1-7,4.55c-4.2.4-7-2.46-6.49-6.58.33-2.92,1.14-5.79,1.69-8.7a33.25,33.25,0,0,0,.51-3.85,2.34,2.34,0,0,0-1.53-2.49,1.45,1.45,0,0,0-1.12,0,5.24,5.24,0,0,0-2.7,3.27c-.76,2.83-1.42,5.69-2.06,8.54s-1.26,5.89-1.85,8.84c-.12.59-.38.77-1,.75-2,0-3.93,0-5.9,0-.65,0-.86-.17-.67-.85.33-1.23.58-2.49.85-3.73.06-.27.07-.55.13-1-.25.22-.38.31-.48.42a16,16,0,0,1-5.73,4.21,15,15,0,0,1-5.1,1.21,8.18,8.18,0,0,1-6-1.86,5.15,5.15,0,0,1-2.05-4,4,4,0,0,0-.07-.56c-.36.42-.59.73-.86,1-3,3.12-6.56,5.25-11,5.44a8.6,8.6,0,0,1-6.17-2A8.1,8.1,0,0,1,192,132c-.2-.31-.36-.65-.61-1.12a8.56,8.56,0,0,0-.63,1c-1,2.15-6.45,4.39-8.76,4a5.33,5.33,0,0,1-4.65-4.42,11.09,11.09,0,0,1,.1-4.48c1.07-4.93,2.1-9.87,3.14-14.81,0-.14,0-.29.07-.46a1.69,1.69,0,0,0-.31-.09c-1.29-.07-1.63-.67-.94-1.78a1.12,1.12,0,0,1,1-.29c.66.17.74-.23.84-.66.44-2,.85-4,1.32-6a1,1,0,0,1,.57-.64c2.37-.33,4.74-.6,7.21-.9-.56,2.73-1.11,5.33-1.69,8.14.7,0,1.34,0,2,0,.45,0,1-.15,1,.67,0,1.12-.17,1.36-1.06,1.38a8.8,8.8,0,0,1-1.45-.06.85.85,0,0,0-1.07.79c-.43,2.08-.88,4.14-1.31,6.22-.67,3.24-1.36,6.48-2,9.74-.33,1.73.55,2.63,2.29,2.51a4.5,4.5,0,0,0,3.88-3.65,67.45,67.45,0,0,1,1.54-7.24,16.52,16.52,0,0,1,5.79-8.62,10.09,10.09,0,0,1,9.77-1.64,3.84,3.84,0,0,1,2.67,3.65c.28,3.94-1.48,6.87-4.54,9.13a12.19,12.19,0,0,1-6.33,2.46c-1,.08-1.08.19-1.06,1.26a26.52,26.52,0,0,0,.18,2.82,2.67,2.67,0,0,0,2.54,2.51,9.16,9.16,0,0,0,7.1-2.18c.17-.14.35-.29.54-.42a5,5,0,0,0,2.17-4.14,21.27,21.27,0,0,1,1.88-6.66,19.14,19.14,0,0,1,4.22-6.13,10.75,10.75,0,0,1,10.89-2.22,4.77,4.77,0,0,1,1.22,7.48,2.65,2.65,0,0,1-3.12-.18,1,1,0,0,1-.06-.7c.13-.67.37-1.32.45-2,.15-1.14-.22-2.08-.94-2.3a2.29,2.29,0,0,0-2.32.85,12,12,0,0,0-1.52,2.18,25.87,25.87,0,0,0-3.21,11.07,12.48,12.48,0,0,0,.06,2.59,3,3,0,0,0,3.27,2.84c3.17.07,5.61-1.4,7.88-3.48a7.56,7.56,0,0,0,2.26-4.41c1.14-5.67,2.39-11.32,3.59-17,.42-2,.8-3.94,1.24-5.91.06-.26.33-.65.54-.67C240,99.72,242.37,99.44,244.85,99.15Zm-38.12,15a7.93,7.93,0,0,0-.09-1c-.22-.9-1.06-1.9-2.25-1a7.51,7.51,0,0,0-1.85,1.79,24.21,24.21,0,0,0-3.08,7.36c-.27,1.18-.05,1.36,1.08,1A8.79,8.79,0,0,0,206.73,114.12Z" />
    <path class="cls-3"
        d="M29.14,101.44c-.86,4-1.68,7.94-2.53,12a6.25,6.25,0,0,0,3.28-.78,9.71,9.71,0,0,0,4.28-9.9A4.67,4.67,0,0,0,30,99.05c-3.75-.26-7.35.24-10.5,2.48a10.4,10.4,0,0,0-4.3,6.38,20.12,20.12,0,0,0-.53,3.7,12,12,0,0,0,.46,2.76c.14.6,0,.85-.63.68a12.61,12.61,0,0,1-2.6-.78c-2-1.06-2.34-3.59-2-5.59a11.87,11.87,0,0,1,4.34-6.76A21,21,0,0,1,23,97.24a19.79,19.79,0,0,1,10.74.09c3,.94,5.31,2.81,6,6.07a8.39,8.39,0,0,1-2.07,7.25c-.91,1.07-2,2-3.06,3A1.94,1.94,0,0,0,35,114a4.52,4.52,0,0,1,2.7,5.08c-.3,2.6-.88,5.16-1.38,7.74-.23,1.2-.52,2.39-.81,3.57a4.35,4.35,0,0,0,1.31,4.66,1.29,1.29,0,0,1,.16.17,2.83,2.83,0,0,1,.19.24,1.75,1.75,0,0,1-.52.25,43.35,43.35,0,0,1-4.91.62c-2.51,0-3.92-1.48-3.54-4s1.11-4.86,1.61-7.31a53.13,53.13,0,0,0,1-5.86,3.23,3.23,0,0,0-4.36-3.45c-.27.08-.51.55-.58.88-.49,2.13-.92,4.28-1.38,6.43Q23.27,129,22,134.91c-.1.47-.27.72-.79.71-2.07,0-4.14,0-6.2,0-.46,0-.72-.08-.6-.65,1-4.56,2-9.11,3-13.67,1.21-5.63,2.39-11.27,3.59-16.9.43-2,.43-2,2.49-2.28C25.39,101.87,27.26,101.66,29.14,101.44Z" />
    <path class="cls-3"
        d="M150.61,131.08l-.63.85c-1.94,2.72-5.21,4.69-8.87,3.65a6.31,6.31,0,0,1-4.69-5.31,21.31,21.31,0,0,1,1.8-12.15,19.52,19.52,0,0,1,3.81-5.69,9.92,9.92,0,0,1,8.73-3.1,3.4,3.4,0,0,1,2.83,1.85,3.6,3.6,0,0,0,.4.52,10.8,10.8,0,0,1,.2-1.64c.06-.22.35-.54.54-.54,2.16,0,4.33,0,6.5,0a4.3,4.3,0,0,1,.44.08,8.56,8.56,0,0,1-.08.91c-1.18,5.45-2.38,10.9-3.55,16.36a8.93,8.93,0,0,0-.22,2.12,2.23,2.23,0,0,0,3.43,1.79,6.29,6.29,0,0,0,2.52-3.45,1.39,1.39,0,0,1,1.61-1.13c.76.07.93.23.63,1a16.23,16.23,0,0,1-3.35,5.7,9.85,9.85,0,0,1-7,3,4.74,4.74,0,0,1-4.7-3.66C150.86,131.87,150.76,131.56,150.61,131.08Zm-6.9-4.7c.06.7.08,1.29.15,1.87.28,2.44,2.39,3.35,4.39,1.9a5.77,5.77,0,0,0,2.36-3.54c.83-3.87,1.69-7.72,2.49-11.59a2.06,2.06,0,0,0-2.42-2.43,4.73,4.73,0,0,0-3.28,2.31A23.81,23.81,0,0,0,143.71,126.38Z" />
    <path class="cls-3" d="M174,131.63a4.09,4.09,0,0,1-4,4.14,4.13,4.13,0,1,1,4-4.14Z" />
</svg>